<?xml version="1.0" encoding="UTF-8"?><svg xmlns="http://www.w3.org/2000/svg" xmlns:xlink="http://www.w3.org/1999/xlink" fill-opacity="1" color-rendering="auto" color-interpolation="auto" text-rendering="auto" stroke="black" stroke-linecap="square" width="1339" stroke-miterlimit="10" shape-rendering="auto" stroke-opacity="1" fill="black" stroke-dasharray="none" font-weight="normal" stroke-width="1" height="612" font-family="'Dialog'" font-style="normal" stroke-linejoin="miter" font-size="12px" stroke-dashoffset="0" image-rendering="auto">
  <!--Generated by ySVG 2.5-->
  <defs id="genericDefs"/>
  <g>
    <defs id="defs1">
      <clipPath clipPathUnits="userSpaceOnUse" id="clipPath1">
        <path d="M0 0 L1339 0 L1339 612 L0 612 L0 0 Z"/>
      </clipPath>
      <clipPath clipPathUnits="userSpaceOnUse" id="clipPath2">
        <path d="M236 -79 L1575 -79 L1575 533 L236 533 L236 -79 Z"/>
      </clipPath>
      <clipPath clipPathUnits="userSpaceOnUse" id="clipPath3">
        <path d="M232 -83 L1571 -83 L1571 529 L232 529 L232 -83 Z"/>
      </clipPath>
    </defs>
    <g fill="white" text-rendering="geometricPrecision" shape-rendering="geometricPrecision" transform="translate(-236,79)" stroke="white">
      <rect x="236" width="1339" height="612" y="-79" clip-path="url(#clipPath2)" stroke="none"/>
    </g>
    <g fill="rgb(210,210,210)" text-rendering="geometricPrecision" shape-rendering="geometricPrecision" transform="matrix(1,0,0,1,-236,79) translate(4,4)" stroke="rgb(210,210,210)">
      <rect x="251.8328" width="1303.5422" height="109.3765" y="403.6265" clip-path="url(#clipPath3)" stroke="none"/>
    </g>
    <g fill="rgb(242,240,216)" text-rendering="geometricPrecision" shape-rendering="geometricPrecision" transform="matrix(1,0,0,1,-236,79)" stroke="rgb(242,240,216)">
      <rect x="251.8328" width="1303.5422" height="109.3765" y="403.6265" clip-path="url(#clipPath2)" stroke="none"/>
      <rect x="251.8328" y="403.6265" clip-path="url(#clipPath2)" fill="rgb(183,182,158)" width="1303.5422" height="22.3765" stroke="none"/>
    </g>
    <g font-size="15px" stroke-linecap="butt" transform="matrix(1,0,0,1,-236,79)" text-rendering="geometricPrecision" font-family="sans-serif" shape-rendering="geometricPrecision" stroke-miterlimit="1.45">
      <text x="848.5734" xml:space="preserve" y="420.707" clip-path="url(#clipPath2)" stroke="none">Main Application</text>
      <rect fill="none" x="251.8328" width="1303.5422" height="109.3765" y="403.6265" clip-path="url(#clipPath2)"/>
    </g>
    <g fill="rgb(255,204,0)" text-rendering="geometricPrecision" shape-rendering="geometricPrecision" transform="matrix(1,0,0,1,-236,79)" stroke="rgb(255,204,0)">
      <path d="M697.7957 452.3147 Q697.7957 452.3147 697.7957 452.3147 L863.9957 452.3147 Q863.9957 452.3147 863.9957 452.3147 L863.9957 480.3147 Q863.9957 480.3147 863.9957 480.3147 L697.7957 480.3147 Q697.7957 480.3147 697.7957 480.3147 Z" stroke="none" clip-path="url(#clipPath2)"/>
    </g>
    <g text-rendering="geometricPrecision" stroke-miterlimit="1.45" shape-rendering="geometricPrecision" transform="matrix(1,0,0,1,-236,79)" stroke-linecap="butt">
      <path fill="none" d="M697.7957 452.3147 Q697.7957 452.3147 697.7957 452.3147 L863.9957 452.3147 Q863.9957 452.3147 863.9957 452.3147 L863.9957 480.3147 Q863.9957 480.3147 863.9957 480.3147 L697.7957 480.3147 Q697.7957 480.3147 697.7957 480.3147 Z" clip-path="url(#clipPath2)"/>
      <text x="746.8849" y="471.0286" clip-path="url(#clipPath2)" font-family="sans-serif" stroke="none" font-weight="bold" xml:space="preserve">Dataset Tab</text>
    </g>
    <g fill="rgb(255,204,0)" text-rendering="geometricPrecision" shape-rendering="geometricPrecision" transform="matrix(1,0,0,1,-236,79)" stroke="rgb(255,204,0)">
      <path d="M1052.325 452.3147 L1052.325 480.3147 L1058.325 480.3147 L1058.325 486.3147 L1224.525 486.3147 L1224.525 458.3147 L1218.525 458.3147 L1218.525 452.3147 Z" stroke="none" clip-path="url(#clipPath2)"/>
    </g>
    <g text-rendering="geometricPrecision" stroke-miterlimit="1.45" shape-rendering="geometricPrecision" transform="matrix(1,0,0,1,-236,79)" stroke-linecap="butt">
      <path fill="none" d="M1218.525 458.3147 L1218.525 480.3147 L1058.325 480.3147 L1058.325 486.3147 L1224.525 486.3147 L1224.525 458.3147 Z" clip-path="url(#clipPath2)"/>
    </g>
    <g text-rendering="geometricPrecision" stroke-miterlimit="1.45" shape-rendering="geometricPrecision" transform="matrix(1,0,0,1,-236,79)" stroke-linecap="butt">
      <path fill="none" d="M1052.325 452.3147 L1052.325 480.3147 L1218.525 480.3147 L1218.525 452.3147 Z" clip-path="url(#clipPath2)"/>
      <text x="1102.4221" y="471.0286" clip-path="url(#clipPath2)" font-family="sans-serif" stroke="none" font-weight="bold" xml:space="preserve">Model Tabs</text>
    </g>
    <g fill="rgb(255,204,0)" text-rendering="geometricPrecision" shape-rendering="geometricPrecision" transform="matrix(1,0,0,1,-236,79)" stroke="rgb(255,204,0)">
      <path d="M1359.8514 452.3147 Q1359.8514 452.3147 1359.8514 452.3147 L1526.0514 452.3147 Q1526.0514 452.3147 1526.0514 452.3147 L1526.0514 480.3147 Q1526.0514 480.3147 1526.0514 480.3147 L1359.8514 480.3147 Q1359.8514 480.3147 1359.8514 480.3147 Z" stroke="none" clip-path="url(#clipPath2)"/>
    </g>
    <g text-rendering="geometricPrecision" stroke-miterlimit="1.45" shape-rendering="geometricPrecision" transform="matrix(1,0,0,1,-236,79)" stroke-linecap="butt">
      <path fill="none" d="M1359.8514 452.3147 Q1359.8514 452.3147 1359.8514 452.3147 L1526.0514 452.3147 Q1526.0514 452.3147 1526.0514 452.3147 L1526.0514 480.3147 Q1526.0514 480.3147 1526.0514 480.3147 L1359.8514 480.3147 Q1359.8514 480.3147 1359.8514 480.3147 Z" clip-path="url(#clipPath2)"/>
      <text x="1399.2786" y="471.0286" clip-path="url(#clipPath2)" font-family="sans-serif" stroke="none" font-weight="bold" xml:space="preserve">Dashboard Tab</text>
    </g>
    <g fill="rgb(255,204,0)" text-rendering="geometricPrecision" shape-rendering="geometricPrecision" transform="matrix(1,0,0,1,-236,79)" stroke="rgb(255,204,0)">
      <path d="M343.2664 452.3147 Q343.2664 452.3147 343.2664 452.3147 L509.4664 452.3147 Q509.4664 452.3147 509.4664 452.3147 L509.4664 480.3147 Q509.4664 480.3147 509.4664 480.3147 L343.2664 480.3147 Q343.2664 480.3147 343.2664 480.3147 Z" stroke="none" clip-path="url(#clipPath2)"/>
    </g>
    <g text-rendering="geometricPrecision" stroke-miterlimit="1.45" shape-rendering="geometricPrecision" transform="matrix(1,0,0,1,-236,79)" stroke-linecap="butt">
      <path fill="none" d="M343.2664 452.3147 Q343.2664 452.3147 343.2664 452.3147 L509.4664 452.3147 Q509.4664 452.3147 509.4664 452.3147 L509.4664 480.3147 Q509.4664 480.3147 509.4664 480.3147 L343.2664 480.3147 Q343.2664 480.3147 343.2664 480.3147 Z" clip-path="url(#clipPath2)"/>
      <text x="368.3615" y="471.0286" clip-path="url(#clipPath2)" font-family="sans-serif" stroke="none" font-weight="bold" xml:space="preserve">Initialization/Utilities</text>
    </g>
    <g fill="rgb(240,255,255)" text-rendering="geometricPrecision" shape-rendering="geometricPrecision" transform="matrix(1,0,0,1,-236,79)" stroke="rgb(240,255,255)">
      <rect x="251.8328" y="141.25" clip-path="url(#clipPath2)" width="1303.5422" rx="4" ry="4" height="232.3765" stroke="none"/>
      <rect x="251.8328" y="141.25" clip-path="url(#clipPath2)" fill="rgb(153,204,255)" width="1303.5422" height="22.3765" stroke="none"/>
    </g>
    <g font-size="15px" stroke-linecap="butt" transform="matrix(1,0,0,1,-236,79)" text-rendering="geometricPrecision" font-family="sans-serif" shape-rendering="geometricPrecision" stroke-miterlimit="1.45">
      <text x="811.4835" xml:space="preserve" y="158.3306" clip-path="url(#clipPath2)" stroke="none">Root Scripts (Open Source)</text>
    </g>
    <g stroke-linecap="butt" transform="matrix(1,0,0,1,-236,79)" fill="rgb(102,102,153)" text-rendering="geometricPrecision" shape-rendering="geometricPrecision" stroke="rgb(102,102,153)" stroke-miterlimit="1.45">
      <rect x="251.8328" y="141.25" clip-path="url(#clipPath2)" fill="none" width="1303.5422" rx="4" ry="4" height="232.3765"/>
    </g>
    <g fill="rgb(221,187,255)" text-rendering="geometricPrecision" shape-rendering="geometricPrecision" transform="matrix(1,0,0,1,-236,79)" stroke="rgb(221,187,255)">
      <path d="M615.9 226.8132 Q615.9 226.8132 615.9 226.8132 L716.5 226.8132 Q716.5 226.8132 716.5 226.8132 L716.5 256.8132 Q716.5 256.8132 716.5 256.8132 L615.9 256.8132 Q615.9 256.8132 615.9 256.8132 Z" stroke="none" clip-path="url(#clipPath2)"/>
    </g>
    <g text-rendering="geometricPrecision" stroke-miterlimit="1.45" shape-rendering="geometricPrecision" transform="matrix(1,0,0,1,-236,79)" stroke-linecap="butt">
      <path fill="none" d="M615.9 226.8132 Q615.9 226.8132 615.9 226.8132 L716.5 226.8132 Q716.5 226.8132 716.5 226.8132 L716.5 256.8132 Q716.5 256.8132 716.5 256.8132 L615.9 256.8132 Q615.9 256.8132 615.9 256.8132 Z" clip-path="url(#clipPath2)"/>
      <text x="627.1707" y="246.5271" clip-path="url(#clipPath2)" font-family="sans-serif" font-style="italic" stroke="none" xml:space="preserve">datasetload.py</text>
    </g>
    <g fill="rgb(255,204,0)" text-rendering="geometricPrecision" shape-rendering="geometricPrecision" transform="matrix(1,0,0,1,-236,79)" stroke="rgb(255,204,0)">
      <path d="M854.7 226.8132 L854.7 256.8132 L860.7 256.8132 L860.7 262.8132 L961.3 262.8132 L961.3 232.8132 L955.3 232.8132 L955.3 226.8132 Z" stroke="none" clip-path="url(#clipPath2)"/>
    </g>
    <g text-rendering="geometricPrecision" stroke-miterlimit="1.45" shape-rendering="geometricPrecision" transform="matrix(1,0,0,1,-236,79)" stroke-linecap="butt">
      <path fill="none" d="M955.3 232.8132 L955.3 256.8132 L860.7 256.8132 L860.7 262.8132 L961.3 262.8132 L961.3 232.8132 Z" clip-path="url(#clipPath2)"/>
    </g>
    <g text-rendering="geometricPrecision" stroke-miterlimit="1.45" shape-rendering="geometricPrecision" transform="matrix(1,0,0,1,-236,79)" stroke-linecap="butt">
      <path fill="none" d="M854.7 226.8132 L854.7 256.8132 L955.3 256.8132 L955.3 226.8132 Z" clip-path="url(#clipPath2)"/>
      <text x="862.9766" y="246.5271" clip-path="url(#clipPath2)" font-family="sans-serif" font-style="italic" stroke="none" xml:space="preserve">tensorrender.py</text>
    </g>
    <g fill="rgb(255,204,0)" text-rendering="geometricPrecision" shape-rendering="geometricPrecision" transform="matrix(1,0,0,1,-236,79)" stroke="rgb(255,204,0)">
      <path d="M969.3 226.8132 L969.3 256.8132 L975.3 256.8132 L975.3 262.8132 L1075.9 262.8132 L1075.9 232.8132 L1069.9 232.8132 L1069.9 226.8132 Z" stroke="none" clip-path="url(#clipPath2)"/>
    </g>
    <g text-rendering="geometricPrecision" stroke-miterlimit="1.45" shape-rendering="geometricPrecision" transform="matrix(1,0,0,1,-236,79)" stroke-linecap="butt">
      <path fill="none" d="M1069.9 232.8132 L1069.9 256.8132 L975.3 256.8132 L975.3 262.8132 L1075.9 262.8132 L1075.9 232.8132 Z" clip-path="url(#clipPath2)"/>
    </g>
    <g text-rendering="geometricPrecision" stroke-miterlimit="1.45" shape-rendering="geometricPrecision" transform="matrix(1,0,0,1,-236,79)" stroke-linecap="butt">
      <path fill="none" d="M969.3 226.8132 L969.3 256.8132 L1069.9 256.8132 L1069.9 226.8132 Z" clip-path="url(#clipPath2)"/>
      <text x="982.5775" y="246.5271" clip-path="url(#clipPath2)" font-family="sans-serif" font-style="italic" stroke="none" xml:space="preserve">modelbuild.py</text>
    </g>
    <g fill="rgb(221,187,255)" text-rendering="geometricPrecision" shape-rendering="geometricPrecision" transform="matrix(1,0,0,1,-236,79)" stroke="rgb(221,187,255)">
      <path d="M1200.95 226.8132 L1200.95 256.8132 L1206.95 256.8132 L1206.95 262.8132 L1307.55 262.8132 L1307.55 232.8132 L1301.55 232.8132 L1301.55 226.8132 Z" stroke="none" clip-path="url(#clipPath2)"/>
    </g>
    <g text-rendering="geometricPrecision" stroke-miterlimit="1.45" shape-rendering="geometricPrecision" transform="matrix(1,0,0,1,-236,79)" stroke-linecap="butt">
      <path fill="none" d="M1301.55 232.8132 L1301.55 256.8132 L1206.95 256.8132 L1206.95 262.8132 L1307.55 262.8132 L1307.55 232.8132 Z" clip-path="url(#clipPath2)"/>
    </g>
    <g text-rendering="geometricPrecision" stroke-miterlimit="1.45" shape-rendering="geometricPrecision" transform="matrix(1,0,0,1,-236,79)" stroke-linecap="butt">
      <path fill="none" d="M1200.95 226.8132 L1200.95 256.8132 L1301.55 256.8132 L1301.55 226.8132 Z" clip-path="url(#clipPath2)"/>
      <text x="1215.2324" y="246.5271" clip-path="url(#clipPath2)" font-family="sans-serif" font-style="italic" stroke="none" xml:space="preserve">modeltrain.py</text>
    </g>
    <g fill="rgb(255,204,0)" text-rendering="geometricPrecision" shape-rendering="geometricPrecision" transform="matrix(1,0,0,1,-236,79)" stroke="rgb(255,204,0)">
      <path d="M1085.125 226.8132 Q1085.125 226.8132 1085.125 226.8132 L1185.725 226.8132 Q1185.725 226.8132 1185.725 226.8132 L1185.725 256.8132 Q1185.725 256.8132 1185.725 256.8132 L1085.125 256.8132 Q1085.125 256.8132 1085.125 256.8132 Z" stroke="none" clip-path="url(#clipPath2)"/>
    </g>
    <g text-rendering="geometricPrecision" stroke-miterlimit="1.45" shape-rendering="geometricPrecision" transform="matrix(1,0,0,1,-236,79)" stroke-linecap="butt">
      <path fill="none" d="M1085.125 226.8132 Q1085.125 226.8132 1085.125 226.8132 L1185.725 226.8132 Q1185.725 226.8132 1185.725 226.8132 L1185.725 256.8132 Q1185.725 256.8132 1185.725 256.8132 L1085.125 256.8132 Q1085.125 256.8132 1085.125 256.8132 Z" clip-path="url(#clipPath2)"/>
      <text x="1099.0706" y="246.5271" clip-path="url(#clipPath2)" font-family="sans-serif" font-style="italic" stroke="none" xml:space="preserve">graphdraw.py</text>
    </g>
    <g fill="rgb(221,187,255)" text-rendering="geometricPrecision" shape-rendering="geometricPrecision" transform="matrix(1,0,0,1,-236,79)" stroke="rgb(221,187,255)">
      <path d="M376.0664 226.8132 Q376.0664 226.8132 376.0664 226.8132 L476.6664 226.8132 Q476.6664 226.8132 476.6664 226.8132 L476.6664 256.8132 Q476.6664 256.8132 476.6664 256.8132 L376.0664 256.8132 Q376.0664 256.8132 376.0664 256.8132 Z" stroke="none" clip-path="url(#clipPath2)"/>
    </g>
    <g text-rendering="geometricPrecision" stroke-miterlimit="1.45" shape-rendering="geometricPrecision" transform="matrix(1,0,0,1,-236,79)" stroke-linecap="butt">
      <path fill="none" d="M376.0664 226.8132 Q376.0664 226.8132 376.0664 226.8132 L476.6664 226.8132 Q476.6664 226.8132 476.6664 226.8132 L476.6664 256.8132 Q476.6664 256.8132 476.6664 256.8132 L376.0664 256.8132 Q376.0664 256.8132 376.0664 256.8132 Z" clip-path="url(#clipPath2)"/>
      <text x="384.674" y="246.5271" clip-path="url(#clipPath2)" font-family="sans-serif" font-style="italic" stroke="none" xml:space="preserve">pythoncheck.py</text>
    </g>
    <g fill="rgb(255,204,0)" text-rendering="geometricPrecision" shape-rendering="geometricPrecision" transform="matrix(1,0,0,1,-236,79)" stroke="rgb(255,204,0)">
      <path d="M266.8328 226.8132 Q266.8328 226.8132 266.8328 226.8132 L367.4328 226.8132 Q367.4328 226.8132 367.4328 226.8132 L367.4328 256.8132 Q367.4328 256.8132 367.4328 256.8132 L266.8328 256.8132 Q266.8328 256.8132 266.8328 256.8132 Z" stroke="none" clip-path="url(#clipPath2)"/>
    </g>
    <g text-rendering="geometricPrecision" stroke-miterlimit="1.45" shape-rendering="geometricPrecision" transform="matrix(1,0,0,1,-236,79)" stroke-linecap="butt">
      <path fill="none" d="M266.8328 226.8132 Q266.8328 226.8132 266.8328 226.8132 L367.4328 226.8132 Q367.4328 226.8132 367.4328 226.8132 L367.4328 256.8132 Q367.4328 256.8132 367.4328 256.8132 L266.8328 256.8132 Q266.8328 256.8132 266.8328 256.8132 Z" clip-path="url(#clipPath2)"/>
      <text x="275.7744" y="246.5271" clip-path="url(#clipPath2)" font-family="sans-serif" font-style="italic" stroke="none" xml:space="preserve">pythoninstall.py</text>
    </g>
    <g fill="rgb(255,204,0)" text-rendering="geometricPrecision" shape-rendering="geometricPrecision" transform="matrix(1,0,0,1,-236,79)" stroke="rgb(255,204,0)">
      <path d="M485.3 226.8132 L485.3 256.8132 L491.3 256.8132 L491.3 262.8132 L591.9 262.8132 L591.9 232.8132 L585.9 232.8132 L585.9 226.8132 Z" stroke="none" clip-path="url(#clipPath2)"/>
    </g>
    <g text-rendering="geometricPrecision" stroke-miterlimit="1.45" shape-rendering="geometricPrecision" transform="matrix(1,0,0,1,-236,79)" stroke-linecap="butt">
      <path fill="none" d="M585.9 232.8132 L585.9 256.8132 L491.3 256.8132 L491.3 262.8132 L591.9 262.8132 L591.9 232.8132 Z" clip-path="url(#clipPath2)"/>
    </g>
    <g text-rendering="geometricPrecision" stroke-miterlimit="1.45" shape-rendering="geometricPrecision" transform="matrix(1,0,0,1,-236,79)" stroke-linecap="butt">
      <path fill="none" d="M485.3 226.8132 L485.3 256.8132 L585.9 256.8132 L585.9 226.8132 Z" clip-path="url(#clipPath2)"/>
      <text x="494.5727" y="246.5271" clip-path="url(#clipPath2)" font-family="sans-serif" font-style="italic" stroke="none" xml:space="preserve">pythonparse.py</text>
    </g>
    <g fill="rgb(221,187,255)" text-rendering="geometricPrecision" shape-rendering="geometricPrecision" transform="matrix(1,0,0,1,-236,79)" stroke="rgb(221,187,255)">
      <path d="M485.3 277.3132 Q485.3 277.3132 485.3 277.3132 L1540.375 277.3132 Q1540.375 277.3132 1540.375 277.3132 L1540.375 307.3132 Q1540.375 307.3132 1540.375 307.3132 L485.3 307.3132 Q485.3 307.3132 485.3 307.3132 Z" stroke="none" clip-path="url(#clipPath2)"/>
    </g>
    <g text-rendering="geometricPrecision" stroke-miterlimit="1.45" stroke-dasharray="6,2" shape-rendering="geometricPrecision" transform="matrix(1,0,0,1,-236,79)" stroke-linecap="butt">
      <path fill="none" d="M485.3 277.3132 Q485.3 277.3132 485.3 277.3132 L1540.375 277.3132 Q1540.375 277.3132 1540.375 277.3132 L1540.375 307.3132 Q1540.375 307.3132 1540.375 307.3132 L485.3 307.3132 Q485.3 307.3132 485.3 307.3132 Z" clip-path="url(#clipPath2)"/>
      <text x="980.819" y="297.0271" clip-path="url(#clipPath2)" font-family="sans-serif" font-style="italic" stroke-dasharray="none" stroke="none" xml:space="preserve">tcpcodec.py</text>
    </g>
    <g fill="rgb(221,187,255)" text-rendering="geometricPrecision" shape-rendering="geometricPrecision" transform="matrix(1,0,0,1,-236,79)" stroke="rgb(221,187,255)">
      <path d="M615.9 178.6265 Q615.9 178.6265 615.9 178.6265 L1301.55 178.6265 Q1301.55 178.6265 1301.55 178.6265 L1301.55 208.6265 Q1301.55 208.6265 1301.55 208.6265 L615.9 208.6265 Q615.9 208.6265 615.9 208.6265 Z" stroke="none" clip-path="url(#clipPath2)"/>
    </g>
    <g text-rendering="geometricPrecision" stroke-miterlimit="1.45" stroke-dasharray="6,2" shape-rendering="geometricPrecision" transform="matrix(1,0,0,1,-236,79)" stroke-linecap="butt">
      <path fill="none" d="M615.9 178.6265 Q615.9 178.6265 615.9 178.6265 L1301.55 178.6265 Q1301.55 178.6265 1301.55 178.6265 L1301.55 208.6265 Q1301.55 208.6265 1301.55 208.6265 L615.9 208.6265 Q615.9 208.6265 615.9 208.6265 Z" clip-path="url(#clipPath2)"/>
      <text x="928.0424" y="198.3403" clip-path="url(#clipPath2)" font-family="sans-serif" font-style="italic" stroke-dasharray="none" stroke="none" xml:space="preserve">modules.py</text>
    </g>
    <g fill="rgb(255,204,0)" text-rendering="geometricPrecision" shape-rendering="geometricPrecision" transform="matrix(1,0,0,1,-236,79)" stroke="rgb(255,204,0)">
      <path d="M1316.775 226.8132 L1316.775 256.8132 L1322.775 256.8132 L1322.775 262.8132 L1423.375 262.8132 L1423.375 232.8132 L1417.375 232.8132 L1417.375 226.8132 Z" stroke="none" clip-path="url(#clipPath2)"/>
    </g>
    <g text-rendering="geometricPrecision" stroke-miterlimit="1.45" shape-rendering="geometricPrecision" transform="matrix(1,0,0,1,-236,79)" stroke-linecap="butt">
      <path fill="none" d="M1417.375 232.8132 L1417.375 256.8132 L1322.775 256.8132 L1322.775 262.8132 L1423.375 262.8132 L1423.375 232.8132 Z" clip-path="url(#clipPath2)"/>
    </g>
    <g text-rendering="geometricPrecision" stroke-miterlimit="1.45" shape-rendering="geometricPrecision" transform="matrix(1,0,0,1,-236,79)" stroke-linecap="butt">
      <path fill="none" d="M1316.775 226.8132 L1316.775 256.8132 L1417.375 256.8132 L1417.375 226.8132 Z" clip-path="url(#clipPath2)"/>
      <text x="1330.0642" y="246.5271" clip-path="url(#clipPath2)" font-family="sans-serif" font-style="italic" stroke="none" xml:space="preserve">metricsplot.py</text>
    </g>
    <g fill="rgb(255,204,0)" text-rendering="geometricPrecision" shape-rendering="geometricPrecision" transform="matrix(1,0,0,1,-236,79)" stroke="rgb(255,204,0)">
      <path d="M1439.775 226.8132 Q1439.775 226.8132 1439.775 226.8132 L1540.375 226.8132 Q1540.375 226.8132 1540.375 226.8132 L1540.375 256.8132 Q1540.375 256.8132 1540.375 256.8132 L1439.775 256.8132 Q1439.775 256.8132 1439.775 256.8132 Z" stroke="none" clip-path="url(#clipPath2)"/>
    </g>
    <g text-rendering="geometricPrecision" stroke-miterlimit="1.45" shape-rendering="geometricPrecision" transform="matrix(1,0,0,1,-236,79)" stroke-linecap="butt">
      <path fill="none" d="M1439.775 226.8132 Q1439.775 226.8132 1439.775 226.8132 L1540.375 226.8132 Q1540.375 226.8132 1540.375 226.8132 L1540.375 256.8132 Q1540.375 256.8132 1540.375 256.8132 L1439.775 256.8132 Q1439.775 256.8132 1439.775 256.8132 Z" clip-path="url(#clipPath2)"/>
      <text x="1442.0515" y="246.5271" clip-path="url(#clipPath2)" font-family="sans-serif" font-style="italic" stroke="none" xml:space="preserve">parametersplot.py</text>
    </g>
    <g fill="rgb(221,187,255)" text-rendering="geometricPrecision" shape-rendering="geometricPrecision" transform="matrix(1,0,0,1,-236,79)" stroke="rgb(221,187,255)">
      <path d="M376.0664 327.8132 Q376.0664 327.8132 376.0664 327.8132 L1301.55 327.8132 Q1301.55 327.8132 1301.55 327.8132 L1301.55 357.8132 Q1301.55 357.8132 1301.55 357.8132 L376.0664 357.8132 Q376.0664 357.8132 376.0664 357.8132 Z" stroke="none" clip-path="url(#clipPath2)"/>
    </g>
    <g text-rendering="geometricPrecision" stroke-miterlimit="1.45" stroke-dasharray="6,2" shape-rendering="geometricPrecision" transform="matrix(1,0,0,1,-236,79)" stroke-linecap="butt">
      <path fill="none" d="M376.0664 327.8132 Q376.0664 327.8132 376.0664 327.8132 L1301.55 327.8132 Q1301.55 327.8132 1301.55 327.8132 L1301.55 357.8132 Q1301.55 357.8132 1301.55 357.8132 L376.0664 357.8132 Q376.0664 357.8132 376.0664 357.8132 Z" clip-path="url(#clipPath2)"/>
      <text x="805.1198" y="347.5271" clip-path="url(#clipPath2)" font-family="sans-serif" font-style="italic" stroke-dasharray="none" stroke="none" xml:space="preserve">sshtunnel.py</text>
    </g>
    <g fill="rgb(221,187,255)" text-rendering="geometricPrecision" shape-rendering="geometricPrecision" transform="matrix(1,0,0,1,-236,79)" stroke="rgb(221,187,255)">
      <path d="M735.3 226.8132 Q735.3 226.8132 735.3 226.8132 L835.9 226.8132 Q835.9 226.8132 835.9 226.8132 L835.9 256.8132 Q835.9 256.8132 835.9 256.8132 L735.3 256.8132 Q735.3 256.8132 735.3 256.8132 Z" stroke="none" clip-path="url(#clipPath2)"/>
    </g>
    <g text-rendering="geometricPrecision" stroke-miterlimit="1.45" shape-rendering="geometricPrecision" transform="matrix(1,0,0,1,-236,79)" stroke-linecap="butt">
      <path fill="none" d="M735.3 226.8132 Q735.3 226.8132 735.3 226.8132 L835.9 226.8132 Q835.9 226.8132 835.9 226.8132 L835.9 256.8132 Q835.9 256.8132 835.9 256.8132 L735.3 256.8132 Q735.3 256.8132 735.3 256.8132 Z" clip-path="url(#clipPath2)"/>
      <text x="737.2338" y="246.5271" clip-path="url(#clipPath2)" font-family="sans-serif" font-style="italic" stroke="none" xml:space="preserve">datasetanalyze.py</text>
    </g>
    <g text-rendering="geometricPrecision" stroke-miterlimit="1.45" shape-rendering="geometricPrecision" transform="matrix(1,0,0,1,-236,79)" stroke-linecap="butt">
      <path fill="none" d="M773.7412 452.3108 L677.493 263.9178" clip-path="url(#clipPath2)"/>
      <path d="M673.8534 256.7937 L674.8603 269.7546 L677.948 264.8083 L683.7654 265.2051 Z" clip-path="url(#clipPath2)" stroke="none"/>
      <path fill="none" d="M788.6371 452.3108 L889.5246 269.8079" clip-path="url(#clipPath2)"/>
      <path d="M893.395 262.8065 L883.2135 270.8896 L889.0408 270.6831 L891.9653 275.7276 Z" clip-path="url(#clipPath2)" stroke="none"/>
      <path fill="none" d="M1121.0515 452.3108 L932.2772 268.3892" clip-path="url(#clipPath2)"/>
      <path d="M926.5471 262.8065 L931.653 274.7618 L932.9934 269.087 L938.6313 267.5993 Z" clip-path="url(#clipPath2)" stroke="none"/>
      <path fill="none" d="M1128.2001 452.3108 L1034.0989 269.916" clip-path="url(#clipPath2)"/>
      <path d="M1030.4308 262.8065 L1031.4895 275.7633 L1034.5574 270.8047 L1040.3763 271.1782 Z" clip-path="url(#clipPath2)" stroke="none"/>
      <path fill="none" d="M1142.6499 452.3108 L1236.7512 269.916" clip-path="url(#clipPath2)"/>
      <path d="M1240.4192 262.8065 L1230.4738 271.1783 L1236.2927 270.8047 L1239.3607 275.7633 Z" clip-path="url(#clipPath2)" stroke="none"/>
      <path fill="none" d="M668.3375 226.8126 L670.1366 226.0664 L681.9465 223.8705 L701.6295 222.0124 L729.1858 220.4921 L764.6153 219.3097 L807.918 218.4651 L918.1431 217.7894 L974.1305 217.7894 L1085.0636 218.4651 L1129.2515 219.3097 L1165.9202 220.4921 L1195.0696 222.0124 L1216.6998 223.8705 L1225.5808 225.2525 L1225.6769 225.2802" clip-path="url(#clipPath2)"/>
      <path d="M1233.5231 226.8417 L1222.7297 219.5957 L1224.6962 225.0851 L1220.778 229.4034 Z" clip-path="url(#clipPath2)" stroke="none"/>
      <path fill="none" d="M1135.425 452.3108 L1135.425 264.7937" clip-path="url(#clipPath2)"/>
      <path d="M1135.425 256.7937 L1130.425 268.7937 L1135.425 265.7937 L1140.425 268.7937 Z" clip-path="url(#clipPath2)" stroke="none"/>
      <path fill="none" d="M426.3664 452.3108 L426.3664 264.7937" clip-path="url(#clipPath2)"/>
      <path d="M426.3664 256.7937 L421.3664 268.7937 L426.3664 265.7937 L431.3664 268.7937 Z" clip-path="url(#clipPath2)" stroke="none"/>
      <path fill="none" d="M419.5526 452.3108 L327.9219 263.9874" clip-path="url(#clipPath2)"/>
      <path d="M324.4217 256.7937 L325.1759 269.7718 L328.3594 264.8866 L334.168 265.3966 Z" clip-path="url(#clipPath2)" stroke="none"/>
      <path fill="none" d="M433.1802 452.3108 L521.8854 270.0001" clip-path="url(#clipPath2)"/>
      <path d="M525.3855 262.8064 L515.6392 271.4094 L521.4479 270.8993 L524.6313 275.7845 Z" clip-path="url(#clipPath2)" stroke="none"/>
      <path fill="none" d="M1149.8749 452.3108 L1339.6685 268.374" clip-path="url(#clipPath2)"/>
      <path d="M1345.4133 262.8065 L1333.3164 267.5672 L1338.9504 269.0699 L1340.2758 274.7482 Z" clip-path="url(#clipPath2)" stroke="none"/>
      <path fill="none" d="M1438.2184 452.3108 L1376.7317 270.3853" clip-path="url(#clipPath2)"/>
      <path d="M1374.1703 262.8064 L1373.2756 275.7756 L1377.0519 271.3326 L1382.7491 272.5739 Z" clip-path="url(#clipPath2)" stroke="none"/>
      <path fill="none" d="M1445.8909 452.3108 L1485.2871 264.6231" clip-path="url(#clipPath2)"/>
      <path d="M1486.9305 256.7937 L1479.572 267.5106 L1485.0817 265.6017 L1489.3588 269.5649 Z" clip-path="url(#clipPath2)" stroke="none"/>
      <path fill="none" d="M781.1891 452.3108 L785.1185 264.792" clip-path="url(#clipPath2)"/>
      <path d="M785.2861 256.7937 L780.0358 268.6863 L785.0975 265.7917 L790.0336 268.8958 Z" clip-path="url(#clipPath2)" stroke="none"/>
      <path fill="none" d="M716.4844 241.8132 L727.282 241.8132" clip-path="url(#clipPath2)"/>
      <path d="M735.282 241.8132 L723.282 236.8132 L726.282 241.8132 L723.282 246.8132 Z" clip-path="url(#clipPath2)" stroke="none"/>
    </g>
    <g fill="rgb(240,255,255)" text-rendering="geometricPrecision" shape-rendering="geometricPrecision" transform="matrix(1,0,0,1,-236,79)" stroke="rgb(240,255,255)">
      <rect x="251.8328" y="-8.6265" clip-path="url(#clipPath2)" width="1303.5422" rx="4" ry="4" height="119.8765" stroke="none"/>
      <rect x="251.8328" y="-8.6265" clip-path="url(#clipPath2)" fill="rgb(153,204,255)" width="1303.5422" height="22.3765" stroke="none"/>
    </g>
    <g font-size="15px" stroke-linecap="butt" transform="matrix(1,0,0,1,-236,79)" text-rendering="geometricPrecision" font-family="sans-serif" shape-rendering="geometricPrecision" stroke-miterlimit="1.45">
      <text x="802.7274" xml:space="preserve" y="8.4541" clip-path="url(#clipPath2)" stroke="none">Module Scripts (Open Source)</text>
    </g>
    <g stroke-linecap="butt" transform="matrix(1,0,0,1,-236,79)" fill="rgb(102,102,153)" text-rendering="geometricPrecision" shape-rendering="geometricPrecision" stroke="rgb(102,102,153)" stroke-miterlimit="1.45">
      <rect x="251.8328" y="-8.6265" clip-path="url(#clipPath2)" fill="none" width="1303.5422" rx="4" ry="4" height="119.8765"/>
    </g>
    <g fill="rgb(187,136,238)" text-rendering="geometricPrecision" shape-rendering="geometricPrecision" transform="matrix(1,0,0,1,-236,79)" stroke="rgb(187,136,238)">
      <path d="M628.55 36 L628.55 58 L703.85 58 L703.85 36 ZM687.85 40 L699.85 40 L699.85 52 L687.85 52 Z" stroke="none" clip-path="url(#clipPath2)"/>
      <path fill="rgb(221,187,255)" d="M703.85 38 L678.85 38 Q676.85 38 674.85 41.75 L670.85 49.25 Q668.85 53 666.85 53 L628.55 53 L628.55 86 L703.85 86 Z" clip-path="url(#clipPath2)" stroke="none"/>
    </g>
    <g text-rendering="geometricPrecision" stroke-miterlimit="1.45" shape-rendering="geometricPrecision" font-family="sans-serif" transform="matrix(1,0,0,1,-236,79)" stroke-linecap="butt">
      <text x="643.5184" xml:space="preserve" y="65.7139" clip-path="url(#clipPath2)" stroke="none">datasets</text>
    </g>
    <g fill="rgb(187,136,238)" text-rendering="geometricPrecision" shape-rendering="geometricPrecision" transform="matrix(1,0,0,1,-236,79)" stroke="rgb(187,136,238)">
      <path d="M746.6 36 L746.6 58 L824.6 58 L824.6 36 ZM808.6 40 L820.6 40 L820.6 52 L808.6 52 Z" stroke="none" clip-path="url(#clipPath2)"/>
      <path fill="rgb(221,187,255)" d="M824.6 38 L799.6 38 Q797.6 38 795.6 41.75 L791.6 49.25 Q789.6 53 787.6 53 L746.6 53 L746.6 86 L824.6 86 Z" clip-path="url(#clipPath2)" stroke="none"/>
    </g>
    <g text-rendering="geometricPrecision" stroke-miterlimit="1.45" shape-rendering="geometricPrecision" font-family="sans-serif" transform="matrix(1,0,0,1,-236,79)" stroke-linecap="butt">
      <text x="759.9213" xml:space="preserve" y="65.7139" clip-path="url(#clipPath2)" stroke="none">analyzers</text>
    </g>
    <g fill="rgb(204,170,0)" text-rendering="geometricPrecision" shape-rendering="geometricPrecision" transform="matrix(1,0,0,1,-236,79)" stroke="rgb(204,170,0)">
      <path d="M867.35 36 L867.35 58 L942.65 58 L942.65 36 ZM926.65 40 L938.65 40 L938.65 52 L926.65 52 Z" stroke="none" clip-path="url(#clipPath2)"/>
      <path fill="rgb(255,204,0)" d="M942.65 38 L917.65 38 Q915.65 38 913.65 41.75 L909.65 49.25 Q907.65 53 905.65 53 L867.35 53 L867.35 86 L942.65 86 Z" clip-path="url(#clipPath2)" stroke="none"/>
    </g>
    <g text-rendering="geometricPrecision" stroke-miterlimit="1.45" shape-rendering="geometricPrecision" font-family="sans-serif" transform="matrix(1,0,0,1,-236,79)" stroke-linecap="butt">
      <text x="879.3213" xml:space="preserve" y="65.7139" clip-path="url(#clipPath2)" stroke="none">renderers</text>
    </g>
    <g fill="rgb(204,170,0)" text-rendering="geometricPrecision" shape-rendering="geometricPrecision" transform="matrix(1,0,0,1,-236,79)" stroke="rgb(204,170,0)">
      <path d="M979.825 36 L979.825 58 L1055.125 58 L1055.125 36 ZM1039.125 40 L1051.125 40 L1051.125 52 L1039.125 52 Z" stroke="none" clip-path="url(#clipPath2)"/>
      <path fill="rgb(255,204,0)" d="M1055.125 38 L1030.125 38 Q1028.125 38 1026.125 41.75 L1022.125 49.25 Q1020.125 53 1018.125 53 L979.825 53 L979.825 86 L1055.125 86 Z" clip-path="url(#clipPath2)" stroke="none"/>
    </g>
    <g text-rendering="geometricPrecision" stroke-miterlimit="1.45" shape-rendering="geometricPrecision" font-family="sans-serif" transform="matrix(1,0,0,1,-236,79)" stroke-linecap="butt">
      <text x="998.1332" xml:space="preserve" y="65.7139" clip-path="url(#clipPath2)" stroke="none">models</text>
    </g>
    <g fill="rgb(187,136,238)" text-rendering="geometricPrecision" shape-rendering="geometricPrecision" transform="matrix(1,0,0,1,-236,79)" stroke="rgb(187,136,238)">
      <path d="M1085.125 36 L1085.125 58 L1160.425 58 L1160.425 36 ZM1144.425 40 L1156.425 40 L1156.425 52 L1144.425 52 Z" stroke="none" clip-path="url(#clipPath2)"/>
      <path fill="rgb(221,187,255)" d="M1160.425 38 L1135.425 38 Q1133.425 38 1131.425 41.75 L1127.425 49.25 Q1125.425 53 1123.425 53 L1085.125 53 L1085.125 86 L1160.425 86 Z" clip-path="url(#clipPath2)" stroke="none"/>
    </g>
    <g text-rendering="geometricPrecision" stroke-miterlimit="1.45" shape-rendering="geometricPrecision" font-family="sans-serif" transform="matrix(1,0,0,1,-236,79)" stroke-linecap="butt">
      <text x="1112.1051" xml:space="preserve" y="65.7139" clip-path="url(#clipPath2)" stroke="none">loss</text>
    </g>
    <g fill="rgb(187,136,238)" text-rendering="geometricPrecision" shape-rendering="geometricPrecision" transform="matrix(1,0,0,1,-236,79)" stroke="rgb(187,136,238)">
      <path d="M1170.375 36 L1170.375 58 L1245.675 58 L1245.675 36 ZM1229.675 40 L1241.675 40 L1241.675 52 L1229.675 52 Z" stroke="none" clip-path="url(#clipPath2)"/>
      <path fill="rgb(221,187,255)" d="M1245.675 38 L1220.675 38 Q1218.675 38 1216.675 41.75 L1212.675 49.25 Q1210.675 53 1208.675 53 L1170.375 53 L1170.375 86 L1245.675 86 Z" clip-path="url(#clipPath2)" stroke="none"/>
    </g>
    <g text-rendering="geometricPrecision" stroke-miterlimit="1.45" shape-rendering="geometricPrecision" font-family="sans-serif" transform="matrix(1,0,0,1,-236,79)" stroke-linecap="butt">
      <text x="1188.692" xml:space="preserve" y="65.7139" clip-path="url(#clipPath2)" stroke="none">metrics</text>
    </g>
    <g fill="rgb(187,136,238)" text-rendering="geometricPrecision" shape-rendering="geometricPrecision" transform="matrix(1,0,0,1,-236,79)" stroke="rgb(187,136,238)">
      <path d="M1255.625 36 L1255.625 58 L1330.925 58 L1330.925 36 ZM1314.925 40 L1326.925 40 L1326.925 52 L1314.925 52 Z" stroke="none" clip-path="url(#clipPath2)"/>
      <path fill="rgb(221,187,255)" d="M1330.925 38 L1305.925 38 Q1303.925 38 1301.925 41.75 L1297.925 49.25 Q1295.925 53 1293.925 53 L1255.625 53 L1255.625 86 L1330.925 86 Z" clip-path="url(#clipPath2)" stroke="none"/>
    </g>
    <g text-rendering="geometricPrecision" stroke-miterlimit="1.45" shape-rendering="geometricPrecision" font-family="sans-serif" transform="matrix(1,0,0,1,-236,79)" stroke-linecap="butt">
      <text x="1278.6031" xml:space="preserve" y="65.7139" clip-path="url(#clipPath2)" stroke="none">optim</text>
    </g>
    <g fill="rgb(187,136,238)" text-rendering="geometricPrecision" shape-rendering="geometricPrecision" transform="matrix(1,0,0,1,-236,79)" stroke="rgb(187,136,238)">
      <path d="M1340.875 36 L1340.875 58 L1416.175 58 L1416.175 36 ZM1400.175 40 L1412.175 40 L1412.175 52 L1400.175 52 Z" stroke="none" clip-path="url(#clipPath2)"/>
      <path fill="rgb(221,187,255)" d="M1416.175 38 L1391.175 38 Q1389.175 38 1387.175 41.75 L1383.175 49.25 Q1381.175 53 1379.175 53 L1340.875 53 L1340.875 86 L1416.175 86 Z" clip-path="url(#clipPath2)" stroke="none"/>
    </g>
    <g text-rendering="geometricPrecision" stroke-miterlimit="1.45" shape-rendering="geometricPrecision" font-family="sans-serif" transform="matrix(1,0,0,1,-236,79)" stroke-linecap="butt">
      <text x="1349.5094" xml:space="preserve" y="65.7139" clip-path="url(#clipPath2)" stroke="none">schedulers</text>
    </g>
    <g fill="rgb(255,204,0)" text-rendering="geometricPrecision" shape-rendering="geometricPrecision" transform="matrix(1,0,0,1,-236,79)" stroke="rgb(255,204,0)">
      <rect x="587.225" width="100.6" height="30" y="-63.6265" clip-path="url(#clipPath2)" stroke="none"/>
    </g>
    <g text-rendering="geometricPrecision" stroke-miterlimit="1.45" shape-rendering="geometricPrecision" font-family="sans-serif" transform="matrix(1,0,0,1,-236,79)" stroke-linecap="butt">
      <text x="623.1813" xml:space="preserve" y="-43.9126" clip-path="url(#clipPath2)" stroke="none">Local</text>
    </g>
    <g fill="rgb(221,187,255)" text-rendering="geometricPrecision" shape-rendering="geometricPrecision" transform="matrix(1,0,0,1,-236,79)" stroke="rgb(221,187,255)">
      <rect x="717.825" width="100.6" height="30" y="-63.6265" clip-path="url(#clipPath2)" stroke="none"/>
    </g>
    <g text-rendering="geometricPrecision" stroke-miterlimit="1.45" shape-rendering="geometricPrecision" font-family="sans-serif" transform="matrix(1,0,0,1,-236,79)" stroke-linecap="butt">
      <text x="724.1035" xml:space="preserve" y="-43.9126" clip-path="url(#clipPath2)" stroke="none">Local or Remote</text>
      <rect fill="none" x="848.425" width="100.6" height="30" y="-63.6265" clip-path="url(#clipPath2)"/>
      <text x="857.6976" xml:space="preserve" y="-43.9126" clip-path="url(#clipPath2)" stroke="none">Single Instance</text>
    </g>
    <g text-rendering="geometricPrecision" stroke-miterlimit="1.45" shape-rendering="geometricPrecision" transform="matrix(1,0,0,1,-236,79)" stroke-linecap="butt">
      <path fill="none" d="M1080.425 -57.6265 L1080.425 -33.6265 L985.825 -33.6265 L985.825 -27.6265 L1086.425 -27.6265 L1086.425 -57.6265 Z" clip-path="url(#clipPath2)"/>
    </g>
    <g text-rendering="geometricPrecision" stroke-miterlimit="1.45" shape-rendering="geometricPrecision" transform="matrix(1,0,0,1,-236,79)" stroke-linecap="butt">
      <path fill="none" d="M979.825 -63.6265 L979.825 -33.6265 L1080.425 -33.6265 L1080.425 -63.6265 Z" clip-path="url(#clipPath2)"/>
      <text x="982.1016" xml:space="preserve" y="-43.9126" clip-path="url(#clipPath2)" font-family="sans-serif" stroke="none">Multiple Instances</text>
    </g>
    <g text-rendering="geometricPrecision" stroke-miterlimit="1.45" stroke-dasharray="6,2" shape-rendering="geometricPrecision" transform="matrix(1,0,0,1,-236,79)" stroke-linecap="butt">
      <rect fill="none" x="1111.225" width="160.6" height="30" y="-63.6265" clip-path="url(#clipPath2)"/>
      <text x="1130.1656" y="-43.9126" clip-path="url(#clipPath2)" font-family="sans-serif" stroke-dasharray="none" stroke="none" xml:space="preserve">Communication Layers</text>
      <path fill="none" stroke-dasharray="none" d="M666.2 226.8485 L666.2 93.9825" clip-path="url(#clipPath2)"/>
      <path stroke-dasharray="none" d="M666.2 85.9825 L661.2 97.9825 L666.2 94.9825 L671.2 97.9825 Z" clip-path="url(#clipPath2)" stroke="none"/>
      <path fill="none" stroke-dasharray="none" d="M785.6 226.8485 L785.6 93.9825" clip-path="url(#clipPath2)"/>
      <path stroke-dasharray="none" d="M785.6 85.9825 L780.6 97.9825 L785.6 94.9825 L790.6 97.9825 Z" clip-path="url(#clipPath2)" stroke="none"/>
      <path fill="none" stroke-dasharray="none" d="M905 226.8485 L905 93.9825" clip-path="url(#clipPath2)"/>
      <path stroke-dasharray="none" d="M905 85.9825 L900 97.9825 L905 94.9825 L910 97.9825 Z" clip-path="url(#clipPath2)" stroke="none"/>
      <path fill="none" stroke-dasharray="none" d="M1019.4241 226.8485 L1017.8626 93.982" clip-path="url(#clipPath2)"/>
      <path stroke-dasharray="none" d="M1017.7686 85.9825 L1012.91 98.0405 L1017.8743 94.9819 L1022.9092 97.923 Z" clip-path="url(#clipPath2)" stroke="none"/>
      <path fill="none" stroke-dasharray="none" d="M1240.6012 226.8264 L1145.1575 92.5006" clip-path="url(#clipPath2)"/>
      <path stroke-dasharray="none" d="M1140.5237 85.9792 L1143.3984 98.6574 L1145.7367 93.3158 L1151.5502 92.8652 Z" clip-path="url(#clipPath2)" stroke="none"/>
      <path fill="none" stroke-dasharray="none" d="M1247.6725 226.8485 L1215.8573 93.7633" clip-path="url(#clipPath2)"/>
      <path stroke-dasharray="none" d="M1213.9973 85.9825 L1211.9243 98.8162 L1216.0898 94.7359 L1221.6503 96.4912 Z" clip-path="url(#clipPath2)" stroke="none"/>
      <path fill="none" stroke-dasharray="none" d="M1254.7281 226.8485 L1285.6573 93.7748" clip-path="url(#clipPath2)"/>
      <path stroke-dasharray="none" d="M1287.4685 85.9826 L1279.8816 96.539 L1285.4309 94.7489 L1289.6219 98.803 Z" clip-path="url(#clipPath2)" stroke="none"/>
      <path fill="none" stroke-dasharray="none" d="M1261.7993 226.8264 L1356.3373 92.5211" clip-path="url(#clipPath2)"/>
      <path stroke-dasharray="none" d="M1360.942 85.9792 L1349.9462 92.914 L1355.7617 93.3388 L1358.1235 98.67 Z" clip-path="url(#clipPath2)" stroke="none"/>
    </g>
  </g>
</svg>
