<?xml version="1.0" encoding="UTF-8"?><svg xmlns="http://www.w3.org/2000/svg" xmlns:xlink="http://www.w3.org/1999/xlink" fill-opacity="1" color-rendering="auto" color-interpolation="auto" text-rendering="auto" stroke="black" stroke-linecap="square" width="1378" stroke-miterlimit="10" shape-rendering="auto" stroke-opacity="1" fill="black" stroke-dasharray="none" font-weight="normal" stroke-width="1" height="734" font-family="'Dialog'" font-style="normal" stroke-linejoin="miter" font-size="12px" stroke-dashoffset="0" image-rendering="auto">
  <!--Generated by ySVG 2.5-->
  <defs id="genericDefs"/>
  <g>
    <defs id="defs1">
      <clipPath clipPathUnits="userSpaceOnUse" id="clipPath1">
        <path d="M0 0 L1378 0 L1378 734 L0 734 L0 0 Z"/>
      </clipPath>
      <clipPath clipPathUnits="userSpaceOnUse" id="clipPath2">
        <path d="M217 -170 L1595 -170 L1595 564 L217 564 L217 -170 Z"/>
      </clipPath>
      <clipPath clipPathUnits="userSpaceOnUse" id="clipPath3">
        <path d="M213 -174 L1591 -174 L1591 560 L213 560 L213 -174 Z"/>
      </clipPath>
    </defs>
    <g fill="white" text-rendering="geometricPrecision" shape-rendering="geometricPrecision" transform="translate(-217,170)" stroke="white">
      <rect x="217" width="1378" height="734" y="-170" clip-path="url(#clipPath2)" stroke="none"/>
    </g>
    <g fill="rgb(210,210,210)" text-rendering="geometricPrecision" shape-rendering="geometricPrecision" transform="matrix(1,0,0,1,-217,170) translate(4,4)" stroke="rgb(210,210,210)">
      <rect x="232.0112" width="1343.2221" height="109.3765" y="434.7338" clip-path="url(#clipPath3)" stroke="none"/>
    </g>
    <g fill="rgb(242,240,216)" text-rendering="geometricPrecision" shape-rendering="geometricPrecision" transform="matrix(1,0,0,1,-217,170)" stroke="rgb(242,240,216)">
      <rect x="232.0112" width="1343.2221" height="109.3765" y="434.7338" clip-path="url(#clipPath2)" stroke="none"/>
      <rect x="232.0112" y="434.7338" clip-path="url(#clipPath2)" fill="rgb(183,182,158)" width="1343.2221" height="22.3765" stroke="none"/>
    </g>
    <g font-size="15px" stroke-linecap="butt" transform="matrix(1,0,0,1,-217,170)" text-rendering="geometricPrecision" font-family="sans-serif" shape-rendering="geometricPrecision" stroke-miterlimit="1.45">
      <text x="847.7678" xml:space="preserve" y="451.8144" clip-path="url(#clipPath2)" stroke="none">TorchStudio GUI</text>
      <rect fill="none" x="232.0112" width="1343.2221" height="109.3765" y="434.7338" clip-path="url(#clipPath2)"/>
    </g>
    <g fill="rgb(255,204,0)" text-rendering="geometricPrecision" shape-rendering="geometricPrecision" transform="matrix(1,0,0,1,-217,170)" stroke="rgb(255,204,0)">
      <path d="M697.7957 483.422 Q697.7957 483.422 697.7957 483.422 L863.9957 483.422 Q863.9957 483.422 863.9957 483.422 L863.9957 511.422 Q863.9957 511.422 863.9957 511.422 L697.7957 511.422 Q697.7957 511.422 697.7957 511.422 Z" stroke="none" clip-path="url(#clipPath2)"/>
    </g>
    <g text-rendering="geometricPrecision" stroke-miterlimit="1.45" shape-rendering="geometricPrecision" transform="matrix(1,0,0,1,-217,170)" stroke-linecap="butt">
      <path fill="none" d="M697.7957 483.422 Q697.7957 483.422 697.7957 483.422 L863.9957 483.422 Q863.9957 483.422 863.9957 483.422 L863.9957 511.422 Q863.9957 511.422 863.9957 511.422 L697.7957 511.422 Q697.7957 511.422 697.7957 511.422 Z" clip-path="url(#clipPath2)"/>
      <text x="746.8849" y="502.1359" clip-path="url(#clipPath2)" font-family="sans-serif" stroke="none" font-weight="bold" xml:space="preserve">Dataset Tab</text>
    </g>
    <g fill="rgb(255,204,0)" text-rendering="geometricPrecision" shape-rendering="geometricPrecision" transform="matrix(1,0,0,1,-217,170)" stroke="rgb(255,204,0)">
      <path d="M1052.325 483.422 L1052.325 511.422 L1058.325 511.422 L1058.325 517.422 L1224.525 517.422 L1224.525 489.422 L1218.525 489.422 L1218.525 483.422 Z" stroke="none" clip-path="url(#clipPath2)"/>
    </g>
    <g text-rendering="geometricPrecision" stroke-miterlimit="1.45" shape-rendering="geometricPrecision" transform="matrix(1,0,0,1,-217,170)" stroke-linecap="butt">
      <path fill="none" d="M1218.525 489.422 L1218.525 511.422 L1058.325 511.422 L1058.325 517.422 L1224.525 517.422 L1224.525 489.422 Z" clip-path="url(#clipPath2)"/>
    </g>
    <g text-rendering="geometricPrecision" stroke-miterlimit="1.45" shape-rendering="geometricPrecision" transform="matrix(1,0,0,1,-217,170)" stroke-linecap="butt">
      <path fill="none" d="M1052.325 483.422 L1052.325 511.422 L1218.525 511.422 L1218.525 483.422 Z" clip-path="url(#clipPath2)"/>
      <text x="1102.4221" y="502.1359" clip-path="url(#clipPath2)" font-family="sans-serif" stroke="none" font-weight="bold" xml:space="preserve">Model Tabs</text>
    </g>
    <g fill="rgb(255,204,0)" text-rendering="geometricPrecision" shape-rendering="geometricPrecision" transform="matrix(1,0,0,1,-217,170)" stroke="rgb(255,204,0)">
      <path d="M1359.8514 483.422 Q1359.8514 483.422 1359.8514 483.422 L1526.0514 483.422 Q1526.0514 483.422 1526.0514 483.422 L1526.0514 511.422 Q1526.0514 511.422 1526.0514 511.422 L1359.8514 511.422 Q1359.8514 511.422 1359.8514 511.422 Z" stroke="none" clip-path="url(#clipPath2)"/>
    </g>
    <g text-rendering="geometricPrecision" stroke-miterlimit="1.45" shape-rendering="geometricPrecision" transform="matrix(1,0,0,1,-217,170)" stroke-linecap="butt">
      <path fill="none" d="M1359.8514 483.422 Q1359.8514 483.422 1359.8514 483.422 L1526.0514 483.422 Q1526.0514 483.422 1526.0514 483.422 L1526.0514 511.422 Q1526.0514 511.422 1526.0514 511.422 L1359.8514 511.422 Q1359.8514 511.422 1359.8514 511.422 Z" clip-path="url(#clipPath2)"/>
      <text x="1399.2786" y="502.1359" clip-path="url(#clipPath2)" font-family="sans-serif" stroke="none" font-weight="bold" xml:space="preserve">Dashboard Tab</text>
    </g>
    <g fill="rgb(255,204,0)" text-rendering="geometricPrecision" shape-rendering="geometricPrecision" transform="matrix(1,0,0,1,-217,170)" stroke="rgb(255,204,0)">
      <path d="M343.2664 483.422 Q343.2664 483.422 343.2664 483.422 L509.4664 483.422 Q509.4664 483.422 509.4664 483.422 L509.4664 511.422 Q509.4664 511.422 509.4664 511.422 L343.2664 511.422 Q343.2664 511.422 343.2664 511.422 Z" stroke="none" clip-path="url(#clipPath2)"/>
    </g>
    <g text-rendering="geometricPrecision" stroke-miterlimit="1.45" shape-rendering="geometricPrecision" transform="matrix(1,0,0,1,-217,170)" stroke-linecap="butt">
      <path fill="none" d="M343.2664 483.422 Q343.2664 483.422 343.2664 483.422 L509.4664 483.422 Q509.4664 483.422 509.4664 483.422 L509.4664 511.422 Q509.4664 511.422 509.4664 511.422 L343.2664 511.422 Q343.2664 511.422 343.2664 511.422 Z" clip-path="url(#clipPath2)"/>
      <text x="368.3615" y="502.1359" clip-path="url(#clipPath2)" font-family="sans-serif" stroke="none" font-weight="bold" xml:space="preserve">Initialization/Utilities</text>
    </g>
    <g fill="rgb(255,204,0)" text-rendering="geometricPrecision" shape-rendering="geometricPrecision" transform="matrix(1,0,0,1,-217,170)" stroke="rgb(255,204,0)">
      <rect x="553.925" width="100.6" height="30" y="-134.2906" clip-path="url(#clipPath2)" stroke="none"/>
    </g>
    <g text-rendering="geometricPrecision" stroke-miterlimit="1.45" shape-rendering="geometricPrecision" font-family="sans-serif" transform="matrix(1,0,0,1,-217,170)" stroke-linecap="butt">
      <text x="589.8812" xml:space="preserve" y="-114.5768" clip-path="url(#clipPath2)" stroke="none">Local</text>
    </g>
    <g fill="rgb(221,187,255)" text-rendering="geometricPrecision" shape-rendering="geometricPrecision" transform="matrix(1,0,0,1,-217,170)" stroke="rgb(221,187,255)">
      <rect x="684.525" width="100.6" height="30" y="-134.2906" clip-path="url(#clipPath2)" stroke="none"/>
    </g>
    <g text-rendering="geometricPrecision" stroke-miterlimit="1.45" shape-rendering="geometricPrecision" font-family="sans-serif" transform="matrix(1,0,0,1,-217,170)" stroke-linecap="butt">
      <text x="690.8035" xml:space="preserve" y="-114.5768" clip-path="url(#clipPath2)" stroke="none">Local or Remote</text>
      <rect fill="none" x="815.125" width="100.6" height="30" y="-134.2906" clip-path="url(#clipPath2)"/>
      <text x="824.3976" xml:space="preserve" y="-114.5768" clip-path="url(#clipPath2)" stroke="none">Single Instance</text>
    </g>
    <g text-rendering="geometricPrecision" stroke-miterlimit="1.45" shape-rendering="geometricPrecision" transform="matrix(1,0,0,1,-217,170)" stroke-linecap="butt">
      <path fill="none" d="M1047.125 -128.2906 L1047.125 -104.2906 L952.525 -104.2906 L952.525 -98.2906 L1053.125 -98.2906 L1053.125 -128.2906 Z" clip-path="url(#clipPath2)"/>
    </g>
    <g text-rendering="geometricPrecision" stroke-miterlimit="1.45" shape-rendering="geometricPrecision" transform="matrix(1,0,0,1,-217,170)" stroke-linecap="butt">
      <path fill="none" d="M946.525 -134.2906 L946.525 -104.2906 L1047.125 -104.2906 L1047.125 -134.2906 Z" clip-path="url(#clipPath2)"/>
      <text x="948.8016" xml:space="preserve" y="-114.5768" clip-path="url(#clipPath2)" font-family="sans-serif" stroke="none">Multiple Instances</text>
    </g>
    <g text-rendering="geometricPrecision" stroke-miterlimit="1.45" stroke-dasharray="6,2" shape-rendering="geometricPrecision" transform="matrix(1,0,0,1,-217,170)" stroke-linecap="butt">
      <rect fill="none" x="1077.925" width="160.6" height="30" y="-134.2906" clip-path="url(#clipPath2)"/>
      <text x="1096.8656" y="-114.5768" clip-path="url(#clipPath2)" font-family="sans-serif" stroke-dasharray="none" stroke="none" xml:space="preserve">Communication Layers</text>
    </g>
    <g fill="rgb(153,204,255)" text-rendering="geometricPrecision" shape-rendering="geometricPrecision" transform="matrix(1,0,0,1,-217,170)" stroke="rgb(153,204,255)">
      <rect x="232.0112" width="1343.2221" height="22.3765" y="-81.4441" clip-path="url(#clipPath2)" stroke="none"/>
    </g>
    <g font-size="15px" stroke-linecap="butt" transform="matrix(1,0,0,1,-217,170)" text-rendering="geometricPrecision" font-family="sans-serif" shape-rendering="geometricPrecision" stroke-miterlimit="1.45">
      <text x="780.6413" xml:space="preserve" y="-64.3635" clip-path="url(#clipPath2)" stroke="none">TorchStudio Package (Open Source)</text>
    </g>
    <g stroke-linecap="butt" transform="matrix(1,0,0,1,-217,170)" fill="rgb(102,102,153)" text-rendering="geometricPrecision" shape-rendering="geometricPrecision" stroke="rgb(102,102,153)" stroke-miterlimit="1.45">
      <rect x="232.0112" y="-81.4441" clip-path="url(#clipPath2)" fill="none" width="1343.2221" rx="4" ry="4" height="479.0642"/>
    </g>
    <g fill="rgb(218,235,235)" text-rendering="geometricPrecision" shape-rendering="geometricPrecision" transform="matrix(1,0,0,1,-217,170)" stroke="rgb(218,235,235)">
      <rect x="251.8328" y="-44.0676" clip-path="url(#clipPath2)" width="1303.5422" rx="4" ry="4" height="145.2721" stroke="none"/>
      <rect x="251.8328" y="-44.0676" clip-path="url(#clipPath2)" fill="rgb(153,204,255)" width="1303.5422" height="22.3765" stroke="none"/>
    </g>
    <g font-size="15px" stroke-linecap="butt" transform="matrix(1,0,0,1,-217,170)" text-rendering="geometricPrecision" font-family="sans-serif" shape-rendering="geometricPrecision" stroke-miterlimit="1.45">
      <text x="854.0006" xml:space="preserve" y="-26.9871" clip-path="url(#clipPath2)" stroke="none">Module Scripts</text>
    </g>
    <g stroke-linecap="butt" transform="matrix(1,0,0,1,-217,170)" fill="rgb(102,102,153)" text-rendering="geometricPrecision" shape-rendering="geometricPrecision" stroke="rgb(102,102,153)" stroke-miterlimit="1.45">
      <rect x="251.8328" y="-44.0676" clip-path="url(#clipPath2)" fill="none" width="1303.5422" rx="4" ry="4" height="145.2721"/>
    </g>
    <g fill="rgb(187,136,238)" text-rendering="geometricPrecision" shape-rendering="geometricPrecision" transform="matrix(1,0,0,1,-217,170)" stroke="rgb(187,136,238)">
      <path d="M628.55 12.5618 L628.55 34.5618 L703.85 34.5618 L703.85 12.5618 ZM687.85 16.5618 L699.85 16.5618 L699.85 28.5618 L687.85 28.5618 Z" stroke="none" clip-path="url(#clipPath2)"/>
      <path fill="rgb(221,187,255)" d="M703.85 14.5618 L678.85 14.5618 Q676.85 14.5618 674.85 18.3118 L670.85 25.8118 Q668.85 29.5618 666.85 29.5618 L628.55 29.5618 L628.55 62.5618 L703.85 62.5618 Z" clip-path="url(#clipPath2)" stroke="none"/>
    </g>
    <g text-rendering="geometricPrecision" stroke-miterlimit="1.45" shape-rendering="geometricPrecision" font-family="sans-serif" transform="matrix(1,0,0,1,-217,170)" stroke-linecap="butt">
      <text x="643.5184" xml:space="preserve" y="42.2756" clip-path="url(#clipPath2)" stroke="none">datasets</text>
    </g>
    <g fill="rgb(187,136,238)" text-rendering="geometricPrecision" shape-rendering="geometricPrecision" transform="matrix(1,0,0,1,-217,170)" stroke="rgb(187,136,238)">
      <path d="M746.6 12.5618 L746.6 34.5618 L824.6 34.5618 L824.6 12.5618 ZM808.6 16.5618 L820.6 16.5618 L820.6 28.5618 L808.6 28.5618 Z" stroke="none" clip-path="url(#clipPath2)"/>
      <path fill="rgb(221,187,255)" d="M824.6 14.5618 L799.6 14.5618 Q797.6 14.5618 795.6 18.3118 L791.6 25.8118 Q789.6 29.5618 787.6 29.5618 L746.6 29.5618 L746.6 62.5618 L824.6 62.5618 Z" clip-path="url(#clipPath2)" stroke="none"/>
    </g>
    <g text-rendering="geometricPrecision" stroke-miterlimit="1.45" shape-rendering="geometricPrecision" font-family="sans-serif" transform="matrix(1,0,0,1,-217,170)" stroke-linecap="butt">
      <text x="759.9213" xml:space="preserve" y="42.2756" clip-path="url(#clipPath2)" stroke="none">analyzers</text>
    </g>
    <g fill="rgb(204,170,0)" text-rendering="geometricPrecision" shape-rendering="geometricPrecision" transform="matrix(1,0,0,1,-217,170)" stroke="rgb(204,170,0)">
      <path d="M867.35 12.5618 L867.35 34.5618 L942.65 34.5618 L942.65 12.5618 ZM926.65 16.5618 L938.65 16.5618 L938.65 28.5618 L926.65 28.5618 Z" stroke="none" clip-path="url(#clipPath2)"/>
      <path fill="rgb(255,204,0)" d="M942.65 14.5618 L917.65 14.5618 Q915.65 14.5618 913.65 18.3118 L909.65 25.8118 Q907.65 29.5618 905.65 29.5618 L867.35 29.5618 L867.35 62.5618 L942.65 62.5618 Z" clip-path="url(#clipPath2)" stroke="none"/>
    </g>
    <g text-rendering="geometricPrecision" stroke-miterlimit="1.45" shape-rendering="geometricPrecision" font-family="sans-serif" transform="matrix(1,0,0,1,-217,170)" stroke-linecap="butt">
      <text x="879.3213" xml:space="preserve" y="42.2756" clip-path="url(#clipPath2)" stroke="none">renderers</text>
    </g>
    <g fill="rgb(204,170,0)" text-rendering="geometricPrecision" shape-rendering="geometricPrecision" transform="matrix(1,0,0,1,-217,170)" stroke="rgb(204,170,0)">
      <path d="M979.825 12.5618 L979.825 34.5618 L1055.125 34.5618 L1055.125 12.5618 ZM1039.125 16.5618 L1051.125 16.5618 L1051.125 28.5618 L1039.125 28.5618 Z" stroke="none" clip-path="url(#clipPath2)"/>
      <path fill="rgb(255,204,0)" d="M1055.125 14.5618 L1030.125 14.5618 Q1028.125 14.5618 1026.125 18.3118 L1022.125 25.8118 Q1020.125 29.5618 1018.125 29.5618 L979.825 29.5618 L979.825 62.5618 L1055.125 62.5618 Z" clip-path="url(#clipPath2)" stroke="none"/>
    </g>
    <g text-rendering="geometricPrecision" stroke-miterlimit="1.45" shape-rendering="geometricPrecision" font-family="sans-serif" transform="matrix(1,0,0,1,-217,170)" stroke-linecap="butt">
      <text x="998.1332" xml:space="preserve" y="42.2756" clip-path="url(#clipPath2)" stroke="none">models</text>
    </g>
    <g fill="rgb(187,136,238)" text-rendering="geometricPrecision" shape-rendering="geometricPrecision" transform="matrix(1,0,0,1,-217,170)" stroke="rgb(187,136,238)">
      <path d="M1085.125 12.5618 L1085.125 34.5618 L1160.425 34.5618 L1160.425 12.5618 ZM1144.425 16.5618 L1156.425 16.5618 L1156.425 28.5618 L1144.425 28.5618 Z" stroke="none" clip-path="url(#clipPath2)"/>
      <path fill="rgb(221,187,255)" d="M1160.425 14.5618 L1135.425 14.5618 Q1133.425 14.5618 1131.425 18.3118 L1127.425 25.8118 Q1125.425 29.5618 1123.425 29.5618 L1085.125 29.5618 L1085.125 62.5618 L1160.425 62.5618 Z" clip-path="url(#clipPath2)" stroke="none"/>
    </g>
    <g text-rendering="geometricPrecision" stroke-miterlimit="1.45" shape-rendering="geometricPrecision" font-family="sans-serif" transform="matrix(1,0,0,1,-217,170)" stroke-linecap="butt">
      <text x="1112.1051" xml:space="preserve" y="42.2756" clip-path="url(#clipPath2)" stroke="none">loss</text>
    </g>
    <g fill="rgb(187,136,238)" text-rendering="geometricPrecision" shape-rendering="geometricPrecision" transform="matrix(1,0,0,1,-217,170)" stroke="rgb(187,136,238)">
      <path d="M1170.375 12.5618 L1170.375 34.5618 L1245.675 34.5618 L1245.675 12.5618 ZM1229.675 16.5618 L1241.675 16.5618 L1241.675 28.5618 L1229.675 28.5618 Z" stroke="none" clip-path="url(#clipPath2)"/>
      <path fill="rgb(221,187,255)" d="M1245.675 14.5618 L1220.675 14.5618 Q1218.675 14.5618 1216.675 18.3118 L1212.675 25.8118 Q1210.675 29.5618 1208.675 29.5618 L1170.375 29.5618 L1170.375 62.5618 L1245.675 62.5618 Z" clip-path="url(#clipPath2)" stroke="none"/>
    </g>
    <g text-rendering="geometricPrecision" stroke-miterlimit="1.45" shape-rendering="geometricPrecision" font-family="sans-serif" transform="matrix(1,0,0,1,-217,170)" stroke-linecap="butt">
      <text x="1188.692" xml:space="preserve" y="42.2756" clip-path="url(#clipPath2)" stroke="none">metrics</text>
    </g>
    <g fill="rgb(187,136,238)" text-rendering="geometricPrecision" shape-rendering="geometricPrecision" transform="matrix(1,0,0,1,-217,170)" stroke="rgb(187,136,238)">
      <path d="M1255.625 12.5618 L1255.625 34.5618 L1330.925 34.5618 L1330.925 12.5618 ZM1314.925 16.5618 L1326.925 16.5618 L1326.925 28.5618 L1314.925 28.5618 Z" stroke="none" clip-path="url(#clipPath2)"/>
      <path fill="rgb(221,187,255)" d="M1330.925 14.5618 L1305.925 14.5618 Q1303.925 14.5618 1301.925 18.3118 L1297.925 25.8118 Q1295.925 29.5618 1293.925 29.5618 L1255.625 29.5618 L1255.625 62.5618 L1330.925 62.5618 Z" clip-path="url(#clipPath2)" stroke="none"/>
    </g>
    <g text-rendering="geometricPrecision" stroke-miterlimit="1.45" shape-rendering="geometricPrecision" font-family="sans-serif" transform="matrix(1,0,0,1,-217,170)" stroke-linecap="butt">
      <text x="1278.6031" xml:space="preserve" y="42.2756" clip-path="url(#clipPath2)" stroke="none">optim</text>
    </g>
    <g fill="rgb(187,136,238)" text-rendering="geometricPrecision" shape-rendering="geometricPrecision" transform="matrix(1,0,0,1,-217,170)" stroke="rgb(187,136,238)">
      <path d="M1340.875 12.5618 L1340.875 34.5618 L1416.175 34.5618 L1416.175 12.5618 ZM1400.175 16.5618 L1412.175 16.5618 L1412.175 28.5618 L1400.175 28.5618 Z" stroke="none" clip-path="url(#clipPath2)"/>
      <path fill="rgb(221,187,255)" d="M1416.175 14.5618 L1391.175 14.5618 Q1389.175 14.5618 1387.175 18.3118 L1383.175 25.8118 Q1381.175 29.5618 1379.175 29.5618 L1340.875 29.5618 L1340.875 62.5618 L1416.175 62.5618 Z" clip-path="url(#clipPath2)" stroke="none"/>
    </g>
    <g text-rendering="geometricPrecision" stroke-miterlimit="1.45" shape-rendering="geometricPrecision" font-family="sans-serif" transform="matrix(1,0,0,1,-217,170)" stroke-linecap="butt">
      <text x="1349.5094" xml:space="preserve" y="42.2756" clip-path="url(#clipPath2)" stroke="none">schedulers</text>
    </g>
    <g fill="rgb(220,235,235)" text-rendering="geometricPrecision" shape-rendering="geometricPrecision" transform="matrix(1,0,0,1,-217,170)" stroke="rgb(220,235,235)">
      <rect x="251.8328" y="141.25" clip-path="url(#clipPath2)" width="1303.5422" rx="4" ry="4" height="232.3765" stroke="none"/>
      <rect x="251.8328" y="141.25" clip-path="url(#clipPath2)" fill="rgb(153,204,255)" width="1303.5422" height="22.3765" stroke="none"/>
    </g>
    <g font-size="15px" stroke-linecap="butt" transform="matrix(1,0,0,1,-217,170)" text-rendering="geometricPrecision" font-family="sans-serif" shape-rendering="geometricPrecision" stroke-miterlimit="1.45">
      <text x="862.7567" xml:space="preserve" y="158.3306" clip-path="url(#clipPath2)" stroke="none">Root Scripts</text>
    </g>
    <g stroke-linecap="butt" transform="matrix(1,0,0,1,-217,170)" fill="rgb(102,102,153)" text-rendering="geometricPrecision" shape-rendering="geometricPrecision" stroke="rgb(102,102,153)" stroke-miterlimit="1.45">
      <rect x="251.8328" y="141.25" clip-path="url(#clipPath2)" fill="none" width="1303.5422" rx="4" ry="4" height="232.3765"/>
    </g>
    <g fill="rgb(221,187,255)" text-rendering="geometricPrecision" shape-rendering="geometricPrecision" transform="matrix(1,0,0,1,-217,170)" stroke="rgb(221,187,255)">
      <path d="M615.9 226.8132 Q615.9 226.8132 615.9 226.8132 L716.5 226.8132 Q716.5 226.8132 716.5 226.8132 L716.5 256.8132 Q716.5 256.8132 716.5 256.8132 L615.9 256.8132 Q615.9 256.8132 615.9 256.8132 Z" stroke="none" clip-path="url(#clipPath2)"/>
    </g>
    <g text-rendering="geometricPrecision" stroke-miterlimit="1.45" shape-rendering="geometricPrecision" transform="matrix(1,0,0,1,-217,170)" stroke-linecap="butt">
      <path fill="none" d="M615.9 226.8132 Q615.9 226.8132 615.9 226.8132 L716.5 226.8132 Q716.5 226.8132 716.5 226.8132 L716.5 256.8132 Q716.5 256.8132 716.5 256.8132 L615.9 256.8132 Q615.9 256.8132 615.9 256.8132 Z" clip-path="url(#clipPath2)"/>
      <text x="635.1746" y="246.5271" clip-path="url(#clipPath2)" font-family="sans-serif" font-style="italic" stroke="none" xml:space="preserve">datasetload</text>
    </g>
    <g fill="rgb(255,204,0)" text-rendering="geometricPrecision" shape-rendering="geometricPrecision" transform="matrix(1,0,0,1,-217,170)" stroke="rgb(255,204,0)">
      <path d="M854.7 226.8132 L854.7 256.8132 L860.7 256.8132 L860.7 262.8132 L961.3 262.8132 L961.3 232.8132 L955.3 232.8132 L955.3 226.8132 Z" stroke="none" clip-path="url(#clipPath2)"/>
    </g>
    <g text-rendering="geometricPrecision" stroke-miterlimit="1.45" shape-rendering="geometricPrecision" transform="matrix(1,0,0,1,-217,170)" stroke-linecap="butt">
      <path fill="none" d="M955.3 232.8132 L955.3 256.8132 L860.7 256.8132 L860.7 262.8132 L961.3 262.8132 L961.3 232.8132 Z" clip-path="url(#clipPath2)"/>
    </g>
    <g text-rendering="geometricPrecision" stroke-miterlimit="1.45" shape-rendering="geometricPrecision" transform="matrix(1,0,0,1,-217,170)" stroke-linecap="butt">
      <path fill="none" d="M854.7 226.8132 L854.7 256.8132 L955.3 256.8132 L955.3 226.8132 Z" clip-path="url(#clipPath2)"/>
      <text x="870.9805" y="246.5271" clip-path="url(#clipPath2)" font-family="sans-serif" font-style="italic" stroke="none" xml:space="preserve">tensorrender</text>
    </g>
    <g fill="rgb(255,204,0)" text-rendering="geometricPrecision" shape-rendering="geometricPrecision" transform="matrix(1,0,0,1,-217,170)" stroke="rgb(255,204,0)">
      <path d="M969.3 226.8132 L969.3 256.8132 L975.3 256.8132 L975.3 262.8132 L1075.9 262.8132 L1075.9 232.8132 L1069.9 232.8132 L1069.9 226.8132 Z" stroke="none" clip-path="url(#clipPath2)"/>
    </g>
    <g text-rendering="geometricPrecision" stroke-miterlimit="1.45" shape-rendering="geometricPrecision" transform="matrix(1,0,0,1,-217,170)" stroke-linecap="butt">
      <path fill="none" d="M1069.9 232.8132 L1069.9 256.8132 L975.3 256.8132 L975.3 262.8132 L1075.9 262.8132 L1075.9 232.8132 Z" clip-path="url(#clipPath2)"/>
    </g>
    <g text-rendering="geometricPrecision" stroke-miterlimit="1.45" shape-rendering="geometricPrecision" transform="matrix(1,0,0,1,-217,170)" stroke-linecap="butt">
      <path fill="none" d="M969.3 226.8132 L969.3 256.8132 L1069.9 256.8132 L1069.9 226.8132 Z" clip-path="url(#clipPath2)"/>
      <text x="990.5814" y="246.5271" clip-path="url(#clipPath2)" font-family="sans-serif" font-style="italic" stroke="none" xml:space="preserve">modelbuild</text>
    </g>
    <g fill="rgb(221,187,255)" text-rendering="geometricPrecision" shape-rendering="geometricPrecision" transform="matrix(1,0,0,1,-217,170)" stroke="rgb(221,187,255)">
      <path d="M1200.95 226.8132 L1200.95 256.8132 L1206.95 256.8132 L1206.95 262.8132 L1307.55 262.8132 L1307.55 232.8132 L1301.55 232.8132 L1301.55 226.8132 Z" stroke="none" clip-path="url(#clipPath2)"/>
    </g>
    <g text-rendering="geometricPrecision" stroke-miterlimit="1.45" shape-rendering="geometricPrecision" transform="matrix(1,0,0,1,-217,170)" stroke-linecap="butt">
      <path fill="none" d="M1301.55 232.8132 L1301.55 256.8132 L1206.95 256.8132 L1206.95 262.8132 L1307.55 262.8132 L1307.55 232.8132 Z" clip-path="url(#clipPath2)"/>
    </g>
    <g text-rendering="geometricPrecision" stroke-miterlimit="1.45" shape-rendering="geometricPrecision" transform="matrix(1,0,0,1,-217,170)" stroke-linecap="butt">
      <path fill="none" d="M1200.95 226.8132 L1200.95 256.8132 L1301.55 256.8132 L1301.55 226.8132 Z" clip-path="url(#clipPath2)"/>
      <text x="1223.2363" y="246.5271" clip-path="url(#clipPath2)" font-family="sans-serif" font-style="italic" stroke="none" xml:space="preserve">modeltrain</text>
    </g>
    <g fill="rgb(255,204,0)" text-rendering="geometricPrecision" shape-rendering="geometricPrecision" transform="matrix(1,0,0,1,-217,170)" stroke="rgb(255,204,0)">
      <path d="M1085.125 226.8132 Q1085.125 226.8132 1085.125 226.8132 L1185.725 226.8132 Q1185.725 226.8132 1185.725 226.8132 L1185.725 256.8132 Q1185.725 256.8132 1185.725 256.8132 L1085.125 256.8132 Q1085.125 256.8132 1085.125 256.8132 Z" stroke="none" clip-path="url(#clipPath2)"/>
    </g>
    <g text-rendering="geometricPrecision" stroke-miterlimit="1.45" shape-rendering="geometricPrecision" transform="matrix(1,0,0,1,-217,170)" stroke-linecap="butt">
      <path fill="none" d="M1085.125 226.8132 Q1085.125 226.8132 1085.125 226.8132 L1185.725 226.8132 Q1185.725 226.8132 1185.725 226.8132 L1185.725 256.8132 Q1185.725 256.8132 1185.725 256.8132 L1085.125 256.8132 Q1085.125 256.8132 1085.125 256.8132 Z" clip-path="url(#clipPath2)"/>
      <text x="1107.0745" y="246.5271" clip-path="url(#clipPath2)" font-family="sans-serif" font-style="italic" stroke="none" xml:space="preserve">graphdraw</text>
    </g>
    <g fill="rgb(221,187,255)" text-rendering="geometricPrecision" shape-rendering="geometricPrecision" transform="matrix(1,0,0,1,-217,170)" stroke="rgb(221,187,255)">
      <path d="M376.0664 226.8132 Q376.0664 226.8132 376.0664 226.8132 L476.6664 226.8132 Q476.6664 226.8132 476.6664 226.8132 L476.6664 256.8132 Q476.6664 256.8132 476.6664 256.8132 L376.0664 256.8132 Q376.0664 256.8132 376.0664 256.8132 Z" stroke="none" clip-path="url(#clipPath2)"/>
    </g>
    <g text-rendering="geometricPrecision" stroke-miterlimit="1.45" shape-rendering="geometricPrecision" transform="matrix(1,0,0,1,-217,170)" stroke-linecap="butt">
      <path fill="none" d="M376.0664 226.8132 Q376.0664 226.8132 376.0664 226.8132 L476.6664 226.8132 Q476.6664 226.8132 476.6664 226.8132 L476.6664 256.8132 Q476.6664 256.8132 476.6664 256.8132 L376.0664 256.8132 Q376.0664 256.8132 376.0664 256.8132 Z" clip-path="url(#clipPath2)"/>
      <text x="392.6779" y="246.5271" clip-path="url(#clipPath2)" font-family="sans-serif" font-style="italic" stroke="none" xml:space="preserve">pythoncheck</text>
    </g>
    <g fill="rgb(221,187,255)" text-rendering="geometricPrecision" shape-rendering="geometricPrecision" transform="matrix(1,0,0,1,-217,170)" stroke="rgb(221,187,255)">
      <path d="M266.8328 226.8132 Q266.8328 226.8132 266.8328 226.8132 L367.4328 226.8132 Q367.4328 226.8132 367.4328 226.8132 L367.4328 256.8132 Q367.4328 256.8132 367.4328 256.8132 L266.8328 256.8132 Q266.8328 256.8132 266.8328 256.8132 Z" stroke="none" clip-path="url(#clipPath2)"/>
    </g>
    <g text-rendering="geometricPrecision" stroke-miterlimit="1.45" shape-rendering="geometricPrecision" transform="matrix(1,0,0,1,-217,170)" stroke-linecap="butt">
      <path fill="none" d="M266.8328 226.8132 Q266.8328 226.8132 266.8328 226.8132 L367.4328 226.8132 Q367.4328 226.8132 367.4328 226.8132 L367.4328 256.8132 Q367.4328 256.8132 367.4328 256.8132 L266.8328 256.8132 Q266.8328 256.8132 266.8328 256.8132 Z" clip-path="url(#clipPath2)"/>
      <text x="283.7783" y="246.5271" clip-path="url(#clipPath2)" font-family="sans-serif" font-style="italic" stroke="none" xml:space="preserve">pythoninstall</text>
    </g>
    <g fill="rgb(255,204,0)" text-rendering="geometricPrecision" shape-rendering="geometricPrecision" transform="matrix(1,0,0,1,-217,170)" stroke="rgb(255,204,0)">
      <path d="M485.3 226.8132 L485.3 256.8132 L491.3 256.8132 L491.3 262.8132 L591.9 262.8132 L591.9 232.8132 L585.9 232.8132 L585.9 226.8132 Z" stroke="none" clip-path="url(#clipPath2)"/>
    </g>
    <g text-rendering="geometricPrecision" stroke-miterlimit="1.45" shape-rendering="geometricPrecision" transform="matrix(1,0,0,1,-217,170)" stroke-linecap="butt">
      <path fill="none" d="M585.9 232.8132 L585.9 256.8132 L491.3 256.8132 L491.3 262.8132 L591.9 262.8132 L591.9 232.8132 Z" clip-path="url(#clipPath2)"/>
    </g>
    <g text-rendering="geometricPrecision" stroke-miterlimit="1.45" shape-rendering="geometricPrecision" transform="matrix(1,0,0,1,-217,170)" stroke-linecap="butt">
      <path fill="none" d="M485.3 226.8132 L485.3 256.8132 L585.9 256.8132 L585.9 226.8132 Z" clip-path="url(#clipPath2)"/>
      <text x="502.5766" y="246.5271" clip-path="url(#clipPath2)" font-family="sans-serif" font-style="italic" stroke="none" xml:space="preserve">pythonparse</text>
    </g>
    <g fill="rgb(221,187,255)" text-rendering="geometricPrecision" shape-rendering="geometricPrecision" transform="matrix(1,0,0,1,-217,170)" stroke="rgb(221,187,255)">
      <path d="M485.3 277.3132 Q485.3 277.3132 485.3 277.3132 L1540.375 277.3132 Q1540.375 277.3132 1540.375 277.3132 L1540.375 307.3132 Q1540.375 307.3132 1540.375 307.3132 L485.3 307.3132 Q485.3 307.3132 485.3 307.3132 Z" stroke="none" clip-path="url(#clipPath2)"/>
    </g>
    <g text-rendering="geometricPrecision" stroke-miterlimit="1.45" stroke-dasharray="6,2" shape-rendering="geometricPrecision" transform="matrix(1,0,0,1,-217,170)" stroke-linecap="butt">
      <path fill="none" d="M485.3 277.3132 Q485.3 277.3132 485.3 277.3132 L1540.375 277.3132 Q1540.375 277.3132 1540.375 277.3132 L1540.375 307.3132 Q1540.375 307.3132 1540.375 307.3132 L485.3 307.3132 Q485.3 307.3132 485.3 307.3132 Z" clip-path="url(#clipPath2)"/>
      <text x="988.8229" y="297.0271" clip-path="url(#clipPath2)" font-family="sans-serif" font-style="italic" stroke-dasharray="none" stroke="none" xml:space="preserve">tcpcodec</text>
    </g>
    <g fill="rgb(221,187,255)" text-rendering="geometricPrecision" shape-rendering="geometricPrecision" transform="matrix(1,0,0,1,-217,170)" stroke="rgb(221,187,255)">
      <path d="M615.9 178.6265 Q615.9 178.6265 615.9 178.6265 L1301.55 178.6265 Q1301.55 178.6265 1301.55 178.6265 L1301.55 208.6265 Q1301.55 208.6265 1301.55 208.6265 L615.9 208.6265 Q615.9 208.6265 615.9 208.6265 Z" stroke="none" clip-path="url(#clipPath2)"/>
    </g>
    <g text-rendering="geometricPrecision" stroke-miterlimit="1.45" stroke-dasharray="6,2" shape-rendering="geometricPrecision" transform="matrix(1,0,0,1,-217,170)" stroke-linecap="butt">
      <path fill="none" d="M615.9 178.6265 Q615.9 178.6265 615.9 178.6265 L1301.55 178.6265 Q1301.55 178.6265 1301.55 178.6265 L1301.55 208.6265 Q1301.55 208.6265 1301.55 208.6265 L615.9 208.6265 Q615.9 208.6265 615.9 208.6265 Z" clip-path="url(#clipPath2)"/>
      <text x="936.0463" y="198.3403" clip-path="url(#clipPath2)" font-family="sans-serif" font-style="italic" stroke-dasharray="none" stroke="none" xml:space="preserve">modules</text>
    </g>
    <g fill="rgb(255,204,0)" text-rendering="geometricPrecision" shape-rendering="geometricPrecision" transform="matrix(1,0,0,1,-217,170)" stroke="rgb(255,204,0)">
      <path d="M1316.775 226.8132 L1316.775 256.8132 L1322.775 256.8132 L1322.775 262.8132 L1423.375 262.8132 L1423.375 232.8132 L1417.375 232.8132 L1417.375 226.8132 Z" stroke="none" clip-path="url(#clipPath2)"/>
    </g>
    <g text-rendering="geometricPrecision" stroke-miterlimit="1.45" shape-rendering="geometricPrecision" transform="matrix(1,0,0,1,-217,170)" stroke-linecap="butt">
      <path fill="none" d="M1417.375 232.8132 L1417.375 256.8132 L1322.775 256.8132 L1322.775 262.8132 L1423.375 262.8132 L1423.375 232.8132 Z" clip-path="url(#clipPath2)"/>
    </g>
    <g text-rendering="geometricPrecision" stroke-miterlimit="1.45" shape-rendering="geometricPrecision" transform="matrix(1,0,0,1,-217,170)" stroke-linecap="butt">
      <path fill="none" d="M1316.775 226.8132 L1316.775 256.8132 L1417.375 256.8132 L1417.375 226.8132 Z" clip-path="url(#clipPath2)"/>
      <text x="1338.0681" y="246.5271" clip-path="url(#clipPath2)" font-family="sans-serif" font-style="italic" stroke="none" xml:space="preserve">metricsplot</text>
    </g>
    <g fill="rgb(255,204,0)" text-rendering="geometricPrecision" shape-rendering="geometricPrecision" transform="matrix(1,0,0,1,-217,170)" stroke="rgb(255,204,0)">
      <path d="M1439.775 226.8132 Q1439.775 226.8132 1439.775 226.8132 L1540.375 226.8132 Q1540.375 226.8132 1540.375 226.8132 L1540.375 256.8132 Q1540.375 256.8132 1540.375 256.8132 L1439.775 256.8132 Q1439.775 256.8132 1439.775 256.8132 Z" stroke="none" clip-path="url(#clipPath2)"/>
    </g>
    <g text-rendering="geometricPrecision" stroke-miterlimit="1.45" shape-rendering="geometricPrecision" transform="matrix(1,0,0,1,-217,170)" stroke-linecap="butt">
      <path fill="none" d="M1439.775 226.8132 Q1439.775 226.8132 1439.775 226.8132 L1540.375 226.8132 Q1540.375 226.8132 1540.375 226.8132 L1540.375 256.8132 Q1540.375 256.8132 1540.375 256.8132 L1439.775 256.8132 Q1439.775 256.8132 1439.775 256.8132 Z" clip-path="url(#clipPath2)"/>
      <text x="1450.0554" y="246.5271" clip-path="url(#clipPath2)" font-family="sans-serif" font-style="italic" stroke="none" xml:space="preserve">parametersplot</text>
    </g>
    <g fill="rgb(221,187,255)" text-rendering="geometricPrecision" shape-rendering="geometricPrecision" transform="matrix(1,0,0,1,-217,170)" stroke="rgb(221,187,255)">
      <path d="M266.8328 327.8132 Q266.8328 327.8132 266.8328 327.8132 L1301.55 327.8132 Q1301.55 327.8132 1301.55 327.8132 L1301.55 357.8132 Q1301.55 357.8132 1301.55 357.8132 L266.8328 357.8132 Q266.8328 357.8132 266.8328 357.8132 Z" stroke="none" clip-path="url(#clipPath2)"/>
    </g>
    <g text-rendering="geometricPrecision" stroke-miterlimit="1.45" stroke-dasharray="6,2" shape-rendering="geometricPrecision" transform="matrix(1,0,0,1,-217,170)" stroke-linecap="butt">
      <path fill="none" d="M266.8328 327.8132 Q266.8328 327.8132 266.8328 327.8132 L1301.55 327.8132 Q1301.55 327.8132 1301.55 327.8132 L1301.55 357.8132 Q1301.55 357.8132 1301.55 357.8132 L266.8328 357.8132 Q266.8328 357.8132 266.8328 357.8132 Z" clip-path="url(#clipPath2)"/>
      <text x="758.5068" y="347.5271" clip-path="url(#clipPath2)" font-family="sans-serif" font-style="italic" stroke-dasharray="none" stroke="none" xml:space="preserve">sshtunnel</text>
    </g>
    <g fill="rgb(221,187,255)" text-rendering="geometricPrecision" shape-rendering="geometricPrecision" transform="matrix(1,0,0,1,-217,170)" stroke="rgb(221,187,255)">
      <path d="M735.3 226.8132 Q735.3 226.8132 735.3 226.8132 L835.9 226.8132 Q835.9 226.8132 835.9 226.8132 L835.9 256.8132 Q835.9 256.8132 835.9 256.8132 L735.3 256.8132 Q735.3 256.8132 735.3 256.8132 Z" stroke="none" clip-path="url(#clipPath2)"/>
    </g>
    <g text-rendering="geometricPrecision" stroke-miterlimit="1.45" shape-rendering="geometricPrecision" transform="matrix(1,0,0,1,-217,170)" stroke-linecap="butt">
      <path fill="none" d="M735.3 226.8132 Q735.3 226.8132 735.3 226.8132 L835.9 226.8132 Q835.9 226.8132 835.9 226.8132 L835.9 256.8132 Q835.9 256.8132 835.9 256.8132 L735.3 256.8132 Q735.3 256.8132 735.3 256.8132 Z" clip-path="url(#clipPath2)"/>
      <text x="745.2377" y="246.5271" clip-path="url(#clipPath2)" font-family="sans-serif" font-style="italic" stroke="none" xml:space="preserve">datasetanalyze</text>
    </g>
    <g fill="silver" text-rendering="geometricPrecision" shape-rendering="geometricPrecision" transform="matrix(1,0,0,1,-217,170)" stroke="silver">
      <path d="M1275.275 -154.8765 L1275.275 -132.8765 L1350.575 -132.8765 L1350.575 -154.8765 ZM1334.575 -150.8765 L1346.575 -150.8765 L1346.575 -138.8765 L1334.575 -138.8765 Z" stroke="none" clip-path="url(#clipPath2)"/>
      <path fill="rgb(240,240,240)" d="M1350.575 -152.8765 L1325.575 -152.8765 Q1323.575 -152.8765 1321.575 -149.1265 L1317.575 -141.6265 Q1315.575 -137.8765 1313.575 -137.8765 L1275.275 -137.8765 L1275.275 -104.8765 L1350.575 -104.8765 Z" clip-path="url(#clipPath2)" stroke="none"/>
    </g>
    <g text-rendering="geometricPrecision" stroke-miterlimit="1.45" shape-rendering="geometricPrecision" font-family="sans-serif" transform="matrix(1,0,0,1,-217,170)" stroke-linecap="butt">
      <text x="1293.2463" xml:space="preserve" y="-125.1626" clip-path="url(#clipPath2)" stroke="none">Module</text>
    </g>
    <g text-rendering="geometricPrecision" stroke-miterlimit="1.45" shape-rendering="geometricPrecision" transform="matrix(1,0,0,1,-217,170)" stroke-linecap="butt">
      <path fill="none" d="M774.6093 483.4122 L676.211 264.1236" clip-path="url(#clipPath2)"/>
      <path d="M672.9359 256.8247 L673.2868 269.82 L676.6204 265.0359 L682.4103 265.726 Z" clip-path="url(#clipPath2)" stroke="none"/>
      <path fill="none" d="M666.2 226.8035 L666.2 70.5568" clip-path="url(#clipPath2)"/>
      <path d="M666.2 62.5568 L661.2 74.5568 L666.2 71.5568 L671.2 74.5568 Z" clip-path="url(#clipPath2)" stroke="none"/>
      <path fill="none" d="M787.6978 483.4122 L891.2963 270.0377" clip-path="url(#clipPath2)"/>
      <path d="M894.7905 262.8411 L885.0514 271.4522 L890.8596 270.9373 L894.0471 275.8198 Z" clip-path="url(#clipPath2)" stroke="none"/>
      <path fill="none" d="M1122.7955 483.4122 L929.3126 268.7831" clip-path="url(#clipPath2)"/>
      <path d="M923.9561 262.8411 L928.2772 275.1019 L929.9822 269.5258 L935.7047 268.4062 Z" clip-path="url(#clipPath2)" stroke="none"/>
      <path fill="none" d="M905 226.8035 L905 70.5568" clip-path="url(#clipPath2)"/>
      <path d="M905 62.5568 L900 74.5568 L905 71.5568 L910 74.5568 Z" clip-path="url(#clipPath2)" stroke="none"/>
      <path fill="none" d="M1129.0767 483.4122 L1032.4303 270.1279" clip-path="url(#clipPath2)"/>
      <path d="M1029.1284 262.8411 L1029.527 275.835 L1032.843 271.0387 L1038.6355 271.7076 Z" clip-path="url(#clipPath2)" stroke="none"/>
      <path fill="none" d="M1019.4438 226.8035 L1017.8183 70.5564" clip-path="url(#clipPath2)"/>
      <path d="M1017.735 62.5568 L1012.8602 74.6082 L1017.8287 71.5564 L1022.8597 74.5042 Z" clip-path="url(#clipPath2)" stroke="none"/>
      <path fill="none" d="M1141.7733 483.4122 L1238.4197 270.1279" clip-path="url(#clipPath2)"/>
      <path d="M1241.7216 262.8411 L1232.2145 271.7076 L1238.007 271.0387 L1241.323 275.835 Z" clip-path="url(#clipPath2)" stroke="none"/>
      <path fill="none" d="M668.3375 226.8126 L670.1366 226.0664 L681.9465 223.8705 L701.6295 222.0124 L729.1858 220.4921 L764.6153 219.3097 L807.918 218.4651 L918.1431 217.7894 L974.1305 217.7894 L1085.0636 218.4651 L1129.2515 219.3097 L1165.9202 220.4921 L1195.0696 222.0124 L1216.6998 223.8705 L1225.5808 225.2525 L1225.6769 225.2802" clip-path="url(#clipPath2)"/>
      <path d="M1233.5231 226.8417 L1222.7297 219.5957 L1224.6962 225.0851 L1220.778 229.4034 Z" clip-path="url(#clipPath2)" stroke="none"/>
      <path fill="none" d="M1241.8246 226.8285 L1142.7731 69.355" clip-path="url(#clipPath2)"/>
      <path d="M1138.5135 62.5833 L1140.6704 75.4031 L1143.3055 70.2015 L1149.1351 70.0787 Z" clip-path="url(#clipPath2)" stroke="none"/>
      <path fill="none" d="M1248.0789 226.8285 L1214.9717 70.3868" clip-path="url(#clipPath2)"/>
      <path d="M1213.3153 62.5601 L1210.9082 75.3353 L1215.1787 71.3651 L1220.6915 73.2649 Z" clip-path="url(#clipPath2)" stroke="none"/>
      <path fill="none" d="M1254.3331 226.8285 L1286.5193 70.396" clip-path="url(#clipPath2)"/>
      <path d="M1288.1316 62.5601 L1280.8158 73.3062 L1286.3177 71.3755 L1290.6106 75.3216 Z" clip-path="url(#clipPath2)" stroke="none"/>
      <path fill="none" d="M1260.5874 226.8285 L1358.7025 69.3729" clip-path="url(#clipPath2)"/>
      <path d="M1362.9333 62.5832 L1352.3435 70.1235 L1358.1737 70.2216 L1360.8307 75.412 Z" clip-path="url(#clipPath2)" stroke="none"/>
      <path fill="none" d="M1135.425 483.4122 L1135.425 264.8247" clip-path="url(#clipPath2)"/>
      <path d="M1135.425 256.8247 L1130.425 268.8247 L1135.425 265.8247 L1140.425 268.8247 Z" clip-path="url(#clipPath2)" stroke="none"/>
      <path fill="none" d="M426.3664 483.4122 L426.3664 264.8247" clip-path="url(#clipPath2)"/>
      <path d="M426.3664 256.8247 L421.3664 268.8247 L426.3664 265.8247 L431.3664 268.8247 Z" clip-path="url(#clipPath2)" stroke="none"/>
      <path fill="none" d="M420.3794 483.4122 L326.6917 264.1811" clip-path="url(#clipPath2)"/>
      <path d="M323.5479 256.8247 L323.6658 269.8242 L327.0846 265.1007 L332.8613 265.8945 Z" clip-path="url(#clipPath2)" stroke="none"/>
      <path fill="none" d="M432.3535 483.4122 L523.4701 270.1975" clip-path="url(#clipPath2)"/>
      <path d="M526.6138 262.8411 L517.3005 271.9109 L523.0771 271.117 L526.496 275.8405 Z" clip-path="url(#clipPath2)" stroke="none"/>
      <path fill="none" d="M1148.1216 483.4122 L1342.6459 268.7689" clip-path="url(#clipPath2)"/>
      <path d="M1348.0182 262.8411 L1336.2549 268.3752 L1341.9744 269.5099 L1343.6647 275.0905 Z" clip-path="url(#clipPath2)" stroke="none"/>
      <path fill="none" d="M1438.7926 483.4122 L1375.5936 270.5103" clip-path="url(#clipPath2)"/>
      <path d="M1373.317 262.8411 L1371.9386 275.7678 L1375.8782 271.469 L1381.5251 272.9221 Z" clip-path="url(#clipPath2)" stroke="none"/>
      <path fill="none" d="M1445.5342 483.4122 L1485.8571 264.6921" clip-path="url(#clipPath2)"/>
      <path d="M1487.3075 256.8247 L1480.2147 267.7193 L1485.6758 265.6755 L1490.049 269.5323 Z" clip-path="url(#clipPath2)" stroke="none"/>
      <path fill="none" d="M781.1536 483.4122 L785.1765 264.8233" clip-path="url(#clipPath2)"/>
      <path d="M785.3237 256.8247 L780.1038 268.7306 L785.1581 265.8232 L790.1021 268.9146 Z" clip-path="url(#clipPath2)" stroke="none"/>
      <path fill="none" d="M716.4844 241.8132 L727.282 241.8132" clip-path="url(#clipPath2)"/>
      <path d="M735.282 241.8132 L723.282 236.8132 L726.282 241.8132 L723.282 246.8132 Z" clip-path="url(#clipPath2)" stroke="none"/>
      <path fill="none" d="M785.6 226.8035 L785.6 70.5568" clip-path="url(#clipPath2)"/>
      <path d="M785.6 62.5568 L780.6 74.5568 L785.6 71.5568 L790.6 74.5568 Z" clip-path="url(#clipPath2)" stroke="none"/>
    </g>
  </g>
</svg>
